<svg width="210" height="210" viewBox="0 0 210 210" fill="none" xmlns="http://www.w3.org/2000/svg">
<g clip-path="url(#clip0_412_1976)">
<circle cx="104.809" cy="104.809" r="104.268" fill="white" fill-opacity="0.55"/>
<path d="M189.901 106.907L199.3 107.56L199.081 110.702C198.973 112.262 198.492 113.474 197.639 114.34C196.795 115.206 195.584 115.585 194.006 115.475C192.475 115.368 191.342 114.822 190.609 113.837C189.884 112.852 189.576 111.585 189.684 110.035L189.901 106.907ZM191.019 108.344L190.898 110.091C190.815 111.284 191.042 112.22 191.58 112.899C192.117 113.588 192.95 113.971 194.077 114.05C195.232 114.13 196.133 113.872 196.778 113.275C197.423 112.687 197.789 111.774 197.875 110.534L197.994 108.829L191.019 108.344Z" fill="#009DBB"/>
<path d="M188.595 119.435L197.875 121.058L197.641 122.394L188.361 120.77L188.595 119.435Z" fill="#009DBB"/>
<path d="M188.956 125.034L189.537 126.197C188.507 126.688 187.865 127.382 187.611 128.279C187.442 128.877 187.445 129.382 187.622 129.794C187.799 130.207 188.119 130.478 188.581 130.609C189.052 130.742 189.465 130.664 189.822 130.373C190.185 130.094 190.555 129.597 190.934 128.883C191.334 128.125 191.819 127.572 192.387 127.224C192.953 126.886 193.585 126.815 194.282 127.012C194.989 127.213 195.503 127.642 195.826 128.301C196.154 128.972 196.183 129.787 195.911 130.747C195.572 131.943 194.884 132.766 193.846 133.216L193.291 132.119C194.052 131.748 194.545 131.163 194.771 130.366C194.922 129.831 194.908 129.382 194.727 129.018C194.553 128.665 194.294 128.44 193.95 128.342C193.533 128.224 193.164 128.301 192.842 128.572C192.527 128.854 192.173 129.346 191.779 130.047C191.583 130.393 191.38 130.692 191.171 130.946C190.962 131.2 190.711 131.433 190.416 131.643C190.122 131.853 189.787 131.983 189.41 132.033C189.034 132.083 188.624 132.045 188.18 131.919C187.401 131.699 186.845 131.209 186.512 130.449C186.186 129.701 186.151 128.874 186.407 127.968C186.623 127.207 186.974 126.572 187.46 126.064C187.944 125.565 188.443 125.222 188.956 125.034Z" fill="#009DBB"/>
<path d="M183.332 143.53L182.221 144.065C181.927 143.642 181.734 143.042 181.642 142.266C181.545 141.499 181.676 140.72 182.035 139.932C182.603 138.68 183.49 137.842 184.696 137.417C185.899 137.002 187.147 137.088 188.442 137.676C189.719 138.256 190.608 139.145 191.108 140.344C191.617 141.547 191.585 142.779 191.012 144.039C190.643 144.854 190.162 145.458 189.569 145.851C188.986 146.248 188.397 146.497 187.802 146.599L187.454 145.386C188.633 145.157 189.449 144.545 189.901 143.55C190.317 142.633 190.324 141.752 189.922 140.907C189.519 140.062 188.838 139.422 187.878 138.986C186.926 138.554 186.008 138.468 185.125 138.729C184.241 138.989 183.597 139.566 183.192 140.457C183.095 140.672 183.016 140.879 182.956 141.079C182.905 141.283 182.878 141.478 182.877 141.664C182.875 141.849 182.879 142.011 182.889 142.15C182.898 142.289 182.929 142.437 182.981 142.595C183.03 142.762 183.068 142.883 183.096 142.958C183.12 143.041 183.164 143.149 183.228 143.281C183.288 143.422 183.323 143.505 183.332 143.53Z" fill="#009DBB"/>
<path d="M175.083 152.275C175.831 151.155 176.863 150.474 178.179 150.232C179.49 149.998 180.721 150.265 181.873 151.034C183.016 151.797 183.731 152.829 184.017 154.13C184.304 155.431 184.071 156.645 183.318 157.773C182.565 158.9 181.533 159.581 180.222 159.815C178.905 160.057 177.675 159.797 176.532 159.033C175.381 158.265 174.665 157.226 174.383 155.918C174.097 154.617 174.33 153.403 175.083 152.275ZM178.398 151.533C177.452 151.66 176.7 152.143 176.14 152.981C175.581 153.819 175.424 154.699 175.668 155.621C175.921 156.548 176.474 157.297 177.328 157.867C178.197 158.447 179.101 158.671 180.038 158.538C180.979 158.419 181.731 157.936 182.296 157.09C182.855 156.252 183.012 155.372 182.768 154.45C182.525 153.541 181.969 152.797 181.1 152.216C180.247 151.646 179.346 151.419 178.398 151.533Z" fill="#009DBB"/>
<path d="M167.352 162.407L176.719 166.188L175.686 167.291L168.076 164.092L171.765 171.476L170.79 172.517L166.405 163.417L167.352 162.407Z" fill="#009DBB"/>
<path d="M160.667 168.946L166.617 176.25L162.018 179.997L161.26 179.066L164.808 176.176L163.077 174.051L160.405 176.228L159.638 175.286L162.31 173.11L160.383 170.744L156.572 173.849L155.805 172.907L160.667 168.946Z" fill="#009DBB"/>
<path d="M151.907 175.617L156.877 183.621L154.321 185.208C153.377 185.794 152.533 185.996 151.789 185.816C151.05 185.643 150.479 185.232 150.077 184.584C149.386 183.472 149.416 182.423 150.167 181.436L146.171 179.178L147.467 178.374L151.217 180.584L152.825 179.586L150.791 176.31L151.907 175.617ZM153.429 180.558L151.893 181.512C151.397 181.819 151.095 182.173 150.988 182.572C150.886 182.979 150.967 183.394 151.23 183.818C151.503 184.258 151.85 184.514 152.271 184.585C152.697 184.664 153.15 184.555 153.63 184.257L155.142 183.318L153.429 180.558Z" fill="#009DBB"/>
<path d="M130.205 185.971L132.6 195.082L129.554 195.883C128.042 196.28 126.74 196.214 125.646 195.683C124.555 195.162 123.808 194.136 123.406 192.606C123.016 191.122 123.17 189.874 123.868 188.863C124.569 187.861 125.67 187.163 127.173 186.768L130.205 185.971ZM129.203 187.49L127.509 187.935C126.352 188.239 125.539 188.755 125.068 189.482C124.588 190.212 124.492 191.124 124.779 192.216C125.073 193.337 125.607 194.107 126.379 194.527C127.143 194.949 128.125 195.002 129.327 194.686L130.98 194.252L129.203 187.49Z" fill="#009DBB"/>
<path d="M117.93 188.707L119.339 198.022L117.999 198.225L116.589 188.91L117.93 188.707Z" fill="#009DBB"/>
<path d="M112.631 190.831L111.712 191.751C110.92 190.93 110.058 190.541 109.127 190.584C108.506 190.613 108.028 190.776 107.693 191.074C107.358 191.373 107.202 191.762 107.224 192.241C107.247 192.731 107.452 193.098 107.841 193.344C108.22 193.6 108.809 193.794 109.607 193.927C110.452 194.067 111.13 194.351 111.64 194.78C112.141 195.209 112.408 195.786 112.441 196.51C112.475 197.244 112.231 197.868 111.708 198.382C111.176 198.907 110.412 199.192 109.415 199.238C108.173 199.295 107.175 198.903 106.419 198.062L107.284 197.187C107.877 197.792 108.588 198.074 109.416 198.036C109.971 198.01 110.392 197.854 110.681 197.567C110.96 197.29 111.091 196.973 111.075 196.616C111.055 196.183 110.865 195.857 110.506 195.638C110.138 195.429 109.56 195.249 108.77 195.097C108.38 195.02 108.032 194.923 107.725 194.806C107.418 194.688 107.118 194.523 106.825 194.31C106.532 194.097 106.303 193.821 106.136 193.48C105.97 193.139 105.876 192.738 105.854 192.277C105.817 191.468 106.106 190.785 106.721 190.229C107.327 189.682 108.1 189.387 109.041 189.343C109.831 189.307 110.544 189.439 111.18 189.739C111.807 190.04 112.29 190.404 112.631 190.831Z" fill="#009DBB"/>
<path d="M92.0734 191.262L91.211 190.38C91.5176 189.966 92.0238 189.591 92.7295 189.255C93.4258 188.918 94.205 188.793 95.0669 188.88C96.4348 189.017 97.5129 189.59 98.3012 190.596C99.0802 191.602 99.3985 192.812 99.2562 194.227C99.1158 195.623 98.5577 196.75 97.5818 197.608C96.605 198.475 95.428 198.839 94.0508 198.7C93.1607 198.611 92.4347 198.349 91.8728 197.913C91.3099 197.488 90.8848 197.01 90.5975 196.479L91.6351 195.76C92.2304 196.804 93.0715 197.381 94.1583 197.49C95.1608 197.591 95.9976 197.316 96.6688 196.664C97.3401 196.012 97.7285 195.162 97.834 194.112C97.9386 193.072 97.726 192.176 97.1961 191.422C96.6662 190.668 95.9141 190.243 94.9397 190.145C94.7055 190.121 94.4839 190.113 94.275 190.12C94.0651 190.137 93.872 190.174 93.6959 190.232C93.5197 190.29 93.3674 190.346 93.239 190.399C93.1106 190.453 92.9799 190.53 92.8468 190.63C92.7043 190.729 92.6021 190.804 92.5402 190.854C92.469 190.904 92.3809 190.98 92.2759 191.083C92.1615 191.185 92.094 191.245 92.0734 191.262Z" fill="#009DBB"/>
<path d="M82.0978 186.293C83.3974 186.645 84.3715 187.407 85.02 188.578C85.6595 189.746 85.7982 190.998 85.4361 192.334C85.0766 193.661 84.3258 194.667 83.1839 195.353C82.0421 196.039 80.8168 196.204 79.508 195.849C78.1993 195.495 77.2252 194.733 76.5857 193.565C75.9372 192.394 75.7927 191.145 76.1523 189.818C76.5144 188.482 77.2709 187.473 78.4218 186.789C79.5637 186.104 80.789 185.938 82.0978 186.293ZM83.8566 189.199C83.4348 188.343 82.7377 187.783 81.7653 187.52C80.7928 187.256 79.9085 187.387 79.1124 187.913C78.3139 188.448 77.7803 189.211 77.5119 190.201C77.2385 191.21 77.3139 192.138 77.7381 192.985C78.1508 193.838 78.8479 194.397 79.8294 194.663C80.8019 194.927 81.6862 194.796 82.4823 194.27C83.2668 193.751 83.7958 192.987 84.0692 191.978C84.3376 190.988 84.2668 190.061 83.8566 189.199Z" fill="#009DBB"/>
<path d="M70.1207 182.175L69.506 192.257L68.1323 191.627L68.7524 183.396L62.9197 189.237L61.623 188.642L68.8625 181.598L70.1207 182.175Z" fill="#009DBB"/>
<path d="M61.7877 177.886L56.7013 185.816L51.708 182.613L52.3562 181.602L56.2081 184.073L57.6876 181.767L54.7867 179.906L55.4425 178.883L58.3434 180.744L59.9906 178.176L55.8533 175.522L56.5091 174.5L61.7877 177.886Z" fill="#009DBB"/>
<path d="M52.7593 171.686L46.7298 178.924L44.4182 176.999C43.5644 176.288 43.1061 175.551 43.0433 174.788C42.9744 174.032 43.184 173.361 43.6721 172.775C44.5098 171.769 45.5153 171.467 46.6884 171.868L47.5717 167.365L48.7438 168.341L47.8279 172.596L49.2822 173.808L51.75 170.845L52.7593 171.686ZM48.5499 174.687L47.1608 173.53C46.7122 173.156 46.2818 172.981 45.8695 173.006C45.4511 173.037 45.0822 173.244 44.7628 173.628C44.4314 174.026 44.2982 174.436 44.3634 174.858C44.4226 175.287 44.6693 175.682 45.1034 176.044L46.4708 177.183L48.5499 174.687Z" fill="#009DBB"/>
<path d="M36.0962 154.391L28.2039 159.536L26.484 156.897C25.6304 155.588 25.283 154.33 25.4417 153.125C25.5925 151.926 26.3306 150.894 27.6558 150.03C28.9416 149.192 30.1743 148.945 31.3538 149.288C32.5255 149.638 33.5356 150.463 34.384 151.764L36.0962 154.391ZM34.3382 153.919L33.3818 152.451C32.7288 151.45 31.9829 150.84 31.1442 150.622C30.3003 150.397 29.4051 150.592 28.4585 151.21C27.4882 151.842 26.9255 152.591 26.7703 153.456C26.6099 154.314 26.8691 155.263 27.5478 156.305L28.4811 157.736L34.3382 153.919Z" fill="#009DBB"/>
<path d="M29.627 143.656L21.2469 147.961L20.6274 146.755L29.0075 142.45L29.627 143.656Z" fill="#009DBB"/>
<path d="M25.9312 139.339L24.7673 138.761C25.2935 137.748 25.388 136.808 25.0507 135.939C24.8259 135.359 24.5188 134.958 24.1294 134.736C23.7399 134.513 23.3214 134.489 22.8737 134.662C22.4172 134.84 22.1342 135.151 22.0247 135.598C21.903 136.039 21.9063 136.659 22.0344 137.458C22.1709 138.304 22.117 139.037 21.8728 139.657C21.6252 140.268 21.1634 140.705 20.4875 140.967C19.8028 141.233 19.1334 141.2 18.4793 140.868C17.8131 140.53 17.2994 139.897 16.9382 138.966C16.4885 137.807 16.5424 136.736 17.0998 135.752L18.2038 136.293C17.8201 137.048 17.7781 137.812 18.0779 138.584C18.2789 139.102 18.5612 139.452 18.9248 139.634C19.2762 139.811 19.6187 139.835 19.9523 139.705C20.3561 139.549 20.6047 139.265 20.6981 138.855C20.7793 138.44 20.7663 137.834 20.6591 137.037C20.6072 136.643 20.5882 136.282 20.602 135.953C20.6159 135.625 20.6771 135.288 20.7856 134.943C20.894 134.598 21.0834 134.292 21.3537 134.025C21.624 133.759 21.9742 133.542 22.4043 133.375C23.1593 133.082 23.8984 133.139 24.6216 133.545C25.3327 133.945 25.8586 134.585 26.1993 135.463C26.4854 136.2 26.5873 136.918 26.505 137.617C26.4192 138.306 26.2279 138.881 25.9312 139.339Z" fill="#009DBB"/>
<path d="M19.1185 120.443L19.6808 119.346C20.1706 119.505 20.6869 119.866 21.2295 120.428C21.7701 120.982 22.1361 121.681 22.3275 122.526C22.6313 123.867 22.431 125.071 21.7266 126.138C21.0201 127.196 19.9736 127.882 18.5869 128.196C17.2185 128.506 15.9728 128.335 14.8497 127.681C13.7174 127.03 12.9983 126.03 12.6924 124.68C12.4947 123.808 12.513 123.036 12.7471 122.365C12.9721 121.696 13.2905 121.141 13.7023 120.7L14.7135 121.456C13.9124 122.352 13.6326 123.332 13.8739 124.398C14.0966 125.38 14.6235 126.087 15.4546 126.516C16.2857 126.946 17.2155 127.044 18.2441 126.811C19.2634 126.58 20.0463 126.094 20.5927 125.352C21.1391 124.61 21.3041 123.762 21.0877 122.807C21.0357 122.577 20.973 122.364 20.8997 122.169C20.8172 121.975 20.7205 121.804 20.6095 121.655C20.4986 121.506 20.3975 121.38 20.3062 121.275C20.2148 121.17 20.1005 121.07 19.9633 120.976C19.8239 120.872 19.7205 120.799 19.6529 120.757C19.5832 120.705 19.4829 120.646 19.3519 120.579C19.2188 120.503 19.141 120.458 19.1185 120.443Z" fill="#009DBB"/>
<path d="M20.6188 109.371C20.6967 110.716 20.2832 111.881 19.3782 112.867C18.4728 113.844 17.3291 114.372 15.9472 114.452C14.5748 114.532 13.3824 114.139 12.3702 113.273C11.358 112.407 10.8126 111.298 10.7342 109.944C10.6558 108.59 11.0693 107.425 11.9747 106.448C12.8797 105.462 14.0184 104.929 15.3908 104.85C16.7727 104.77 17.97 105.167 18.9828 106.042C19.995 106.908 20.5404 108.018 20.6188 109.371ZM18.4202 111.96C19.0982 111.289 19.408 110.451 19.3497 109.445C19.2914 108.439 18.8868 107.642 18.1359 107.053C17.3756 106.465 16.4831 106.201 15.4584 106.261C14.415 106.321 13.559 106.687 12.8904 107.357C12.212 108.019 11.9021 108.858 11.961 109.873C12.0192 110.879 12.4238 111.676 13.1748 112.264C13.9158 112.844 14.808 113.103 15.8514 113.043C16.8761 112.984 17.7323 112.623 18.4202 111.96Z" fill="#009DBB"/>
<path d="M20.6866 96.3601L10.9279 98.968L11.0907 97.4655L19.0947 95.4488L11.7085 91.7644L11.8622 90.3462L20.8357 94.984L20.6866 96.3601Z" fill="#009DBB"/>
<path d="M22.0864 87.0714L12.9482 84.7804L14.3909 79.0262L15.5554 79.3182L14.4425 83.7571L17.1004 84.4235L17.9385 81.0806L19.1167 81.376L18.2786 84.7189L21.2379 85.4608L22.4332 80.6931L23.6114 80.9885L22.0864 87.0714Z" fill="#009DBB"/>
<path d="M25.1414 76.366L16.3715 72.9245L17.4706 70.1239C17.8765 69.0896 18.4317 68.4224 19.1361 68.1223C19.8318 67.8187 20.5347 67.8062 21.2447 68.0849C22.4631 68.563 23.0667 69.422 23.0556 70.6618L27.6077 70.0812L27.0505 71.5012L22.7232 71.9728L22.0318 73.7346L25.6212 75.1433L25.1414 76.366ZM20.9668 73.3167L21.6272 71.6337C21.8405 71.0903 21.8707 70.6267 21.7178 70.243C21.5561 69.8559 21.243 69.5712 20.7785 69.3889C20.2964 69.1997 19.8654 69.2025 19.4854 69.3973C19.0968 69.5887 18.7992 69.9474 18.5928 70.4733L17.9427 72.13L20.9668 73.3167Z" fill="#009DBB"/>
<path d="M36.1305 55.3297L28.7618 49.4598L30.7243 46.9962C31.6982 45.7736 32.782 45.0478 33.9756 44.8189C35.1619 44.5841 36.3737 44.9595 37.611 45.9451C38.8115 46.9014 39.4343 47.9935 39.4795 49.2214C39.5174 50.4433 39.0523 51.6619 38.0842 52.8772L36.1305 55.3297ZM36.0253 53.5123L37.1165 52.1424C37.8616 51.207 38.2053 50.3071 38.1477 49.4425C38.0959 48.5706 37.628 47.7826 36.7442 47.0785C35.8383 46.3569 34.9502 46.0587 34.0799 46.1841C33.2155 46.302 32.396 46.8471 31.6216 47.8193L30.5567 49.1561L36.0253 53.5123Z" fill="#009DBB"/>
<path d="M44.5176 45.5269L37.8077 38.9139L38.7595 37.9482L45.4694 44.5612L44.5176 45.5269Z" fill="#009DBB"/>
<path d="M47.3101 40.7865L47.4923 39.4995C48.6189 39.6799 49.5414 39.4731 50.2599 38.8791C50.7388 38.4831 51.0225 38.0652 51.1111 37.6255C51.1996 37.1858 51.0908 36.7809 50.7848 36.4108C50.4728 36.0334 50.0877 35.8631 49.6294 35.8999C49.1723 35.9235 48.585 36.122 47.8674 36.4954C47.1076 36.8915 46.3949 37.0714 45.7296 37.035C45.0715 36.9927 44.5114 36.6922 44.0494 36.1334C43.5814 35.5673 43.4018 34.9216 43.5107 34.1962C43.6209 33.4576 44.0606 32.7703 44.8298 32.1343C45.7878 31.3423 46.8215 31.0557 47.931 31.2746L47.7654 32.4929C46.9279 32.3666 46.1899 32.5675 45.5513 33.0956C45.1231 33.4496 44.8799 33.8278 44.8217 34.2302C44.7648 34.6194 44.8503 34.9519 45.0783 35.2277C45.3543 35.5615 45.7016 35.7081 46.1201 35.6676C46.5398 35.6137 47.1109 35.4104 47.8332 35.0575C48.1908 34.8841 48.5276 34.7521 48.8439 34.6617C49.1601 34.5713 49.4991 34.5232 49.8608 34.5174C50.2225 34.5115 50.5724 34.5949 50.9105 34.7674C51.2486 34.9399 51.5647 35.2039 51.8587 35.5595C52.3747 36.1836 52.554 36.9029 52.3965 37.7173C52.2403 38.5184 51.7993 39.219 51.0736 39.819C50.4641 40.323 49.8148 40.646 49.1258 40.7881C48.4441 40.9241 47.8389 40.9235 47.3101 40.7865Z" fill="#009DBB"/>
<path d="M63.0368 28.345L64.256 28.5312C64.2597 29.0463 64.0806 29.6502 63.7186 30.3429C63.3646 31.0308 62.8171 31.5991 62.0761 32.0479C60.9002 32.7602 59.6947 32.9509 58.4596 32.6202C57.2324 32.2846 56.2506 31.5088 55.5139 30.2926C54.787 29.0926 54.5557 27.8566 54.8201 26.5845C55.0795 25.3045 55.8012 24.3059 56.9852 23.5887C57.7503 23.1253 58.4882 22.8985 59.1987 22.9084C59.9045 22.9103 60.5316 23.0369 61.0801 23.2881L60.683 24.4864C59.5796 24.0098 58.5608 24.0544 57.6266 24.6204C56.7648 25.1424 56.2616 25.8655 56.1169 26.7898C55.9722 27.7142 56.1731 28.6273 56.7195 29.5294C57.261 30.4234 57.9699 31.0122 58.8464 31.296C59.7229 31.5798 60.5799 31.468 61.4175 30.9606C61.6189 30.8387 61.8008 30.7119 61.9634 30.5804C62.121 30.4409 62.2528 30.295 62.3588 30.1428C62.4647 29.9905 62.553 29.8545 62.6235 29.7347C62.6941 29.6149 62.7524 29.475 62.7986 29.3149C62.8528 29.1499 62.8894 29.0287 62.9085 28.9511C62.9356 28.8686 62.9602 28.7547 62.9821 28.6092C63.0122 28.4589 63.0304 28.3708 63.0368 28.345Z" fill="#009DBB"/>
<path d="M74.3244 26.106C73.0728 26.6026 71.8367 26.5764 70.616 26.0274C69.404 25.475 68.5428 24.5555 68.0323 23.2688C67.5253 21.991 67.5236 20.7355 68.0271 19.5024C68.5306 18.2694 69.4126 17.4028 70.673 16.9027C71.9333 16.4027 73.1695 16.4289 74.3814 16.9813C75.6021 17.5303 76.466 18.4437 76.973 19.7216C77.4835 21.0082 77.4826 22.2698 76.9703 23.5063C76.4667 24.7394 75.5848 25.6059 74.3244 26.106ZM71.1753 24.833C72.0257 25.2655 72.9191 25.296 73.8556 24.9244C74.7921 24.5528 75.4216 23.9181 75.7441 23.0203C76.0632 22.1137 76.0334 21.1833 75.6549 20.2293C75.2694 19.2578 74.6533 18.5601 73.8064 18.1364C72.9648 17.7004 72.0714 17.6699 71.1261 18.0449C70.1896 18.4165 69.5601 19.0512 69.2376 19.9491C68.9204 20.8347 68.9545 21.7633 69.34 22.7348C69.7185 23.6888 70.3303 24.3882 71.1753 24.833Z" fill="#009DBB"/>
<path d="M85.938 22.2632L80.3662 13.8378L81.8427 13.515L86.2966 20.4644L87.4449 12.2905L88.8386 11.9859L87.2903 21.9677L85.938 22.2632Z" fill="#009DBB"/>
<path d="M95.3795 20.6015L94.6535 11.2086L100.568 10.7514L100.661 11.9484L96.0979 12.3011L96.3091 15.0331L99.7452 14.7674L99.8388 15.9785L96.4027 16.2441L96.6378 19.2859L101.538 18.9071L101.632 20.1182L95.3795 20.6015Z" fill="#009DBB"/>
<path d="M106.608 20.0802L107.081 10.6711L110.085 10.8219C111.195 10.8776 112.004 11.1917 112.513 11.7641C113.022 12.327 113.258 12.9894 113.219 13.7511C113.154 15.0583 112.531 15.9039 111.353 16.2878L113.351 20.4187L111.828 20.3422L110.004 16.3898L108.114 16.2949L107.92 20.146L106.608 20.0802ZM108.171 15.1523L109.977 15.243C110.56 15.2722 111.009 15.1534 111.324 14.8863C111.639 14.6099 111.81 14.2225 111.835 13.724C111.861 13.2068 111.721 12.7991 111.415 12.5009C111.11 12.1933 110.676 12.0254 110.111 11.997L108.334 11.9078L108.171 15.1523Z" fill="#009DBB"/>
<path d="M125.647 22.5162L128.385 13.5021L131.399 14.4176C132.895 14.872 133.969 15.6117 134.622 16.6367C135.278 17.6528 135.376 18.9176 134.916 20.4312C134.47 21.8998 133.685 22.8815 132.56 23.3764C131.438 23.8622 130.134 23.8793 128.647 23.4277L125.647 22.5162ZM127.297 21.7481L128.973 22.2572C130.117 22.6048 131.081 22.5924 131.863 22.2199C132.655 21.8502 133.214 21.1247 133.543 20.0436C133.88 18.9354 133.829 17.9999 133.392 17.2372C132.963 16.4772 132.154 15.9165 130.965 15.5552L129.33 15.0585L127.297 21.7481Z" fill="#009DBB"/>
<path d="M137.662 26.6074L141.332 17.9307L142.581 18.4589L138.911 27.1356L137.662 26.6074Z" fill="#009DBB"/>
<path d="M143.259 27.5128L144.523 27.2099C144.769 28.3241 145.3 29.1063 146.116 29.5566C146.66 29.8568 147.153 29.9673 147.594 29.8882C148.036 29.8092 148.373 29.5594 148.605 29.1389C148.841 28.7102 148.858 28.2894 148.656 27.8766C148.466 27.4601 148.066 26.9867 147.455 26.4562C146.808 25.8948 146.379 25.2979 146.168 24.6656C145.966 24.0379 146.04 23.4066 146.391 22.7718C146.745 22.1287 147.28 21.7246 147.995 21.5597C148.722 21.3911 149.523 21.5478 150.397 22.0299C151.485 22.6303 152.131 23.4867 152.335 24.5991L151.141 24.8922C150.951 24.0669 150.493 23.4541 149.768 23.0538C149.281 22.7855 148.84 22.6981 148.444 22.7917C148.061 22.8815 147.783 23.0831 147.611 23.3964C147.401 23.7757 147.392 24.1525 147.584 24.5269C147.788 24.8977 148.187 25.3542 148.78 25.8966C149.073 26.1655 149.319 26.4305 149.519 26.6915C149.719 26.9524 149.889 27.2501 150.027 27.5844C150.165 27.9187 150.216 28.2748 150.179 28.6526C150.143 29.0305 150.014 29.4214 149.791 29.8254C149.4 30.5345 148.796 30.9652 147.981 31.1177C147.178 31.2664 146.365 31.1134 145.54 30.6586C144.848 30.2765 144.309 29.7911 143.924 29.2023C143.547 28.6181 143.326 28.055 143.259 27.5128Z" fill="#009DBB"/>
<path d="M161.132 37.9746L161.401 39.1781C160.923 39.3688 160.295 39.4212 159.518 39.3355C158.749 39.2555 158.021 38.9519 157.333 38.4246C156.242 37.5877 155.627 36.5338 155.486 35.2629C155.353 33.9977 155.719 32.8011 156.585 31.673C157.439 30.5599 158.507 29.8954 159.788 29.6797C161.075 29.4564 162.267 29.7661 163.365 30.6087C164.075 31.1532 164.554 31.7583 164.803 32.424C165.058 33.0822 165.168 33.7124 165.133 34.3147L163.872 34.38C163.915 33.1789 163.504 32.2459 162.637 31.581C161.838 30.9677 160.981 30.7615 160.068 30.9625C159.154 31.1634 158.376 31.6822 157.734 32.519C157.098 33.3482 156.807 34.2227 156.861 35.1423C156.915 36.062 157.33 36.8199 158.107 37.416C158.294 37.5593 158.478 37.6828 158.659 37.7865C158.847 37.8827 159.031 37.9525 159.211 37.9959C159.391 38.0393 159.55 38.0721 159.687 38.0944C159.824 38.1166 159.976 38.1201 160.142 38.105C160.315 38.0956 160.442 38.0857 160.521 38.0752C160.608 38.0705 160.723 38.052 160.866 38.0197C161.017 37.9931 161.106 37.978 161.132 37.9746Z" fill="#009DBB"/>
<path d="M166.754 47.0958C165.83 46.1164 165.397 44.9581 165.456 43.621C165.522 42.2907 166.058 41.1505 167.065 40.2006C168.064 39.2572 169.23 38.7915 170.562 38.8036C171.894 38.8157 173.025 39.3148 173.956 40.3011C174.886 41.2873 175.319 42.4456 175.254 43.776C175.195 45.1131 174.665 46.2534 173.665 47.1969C172.659 48.1468 171.486 48.6123 170.148 48.5933C168.816 48.5813 167.685 48.0821 166.754 47.0958ZM166.773 43.6992C166.685 44.6492 166.987 45.4906 167.679 46.2235C168.37 46.9563 169.193 47.3066 170.146 47.2744C171.106 47.2357 171.96 46.8642 172.706 46.1598C173.467 45.4426 173.887 44.6122 173.968 43.6686C174.062 42.7255 173.76 41.8841 173.062 41.1444C172.371 40.4115 171.548 40.0612 170.595 40.0935C169.655 40.1261 168.804 40.501 168.044 41.2183C167.298 41.9226 166.874 42.7496 166.773 43.6992Z" fill="#009DBB"/>
<path d="M174.996 56.953L180.778 48.6701L181.622 49.9239L176.801 56.624L184.823 54.6815L185.62 55.8651L175.769 58.1014L174.996 56.953Z" fill="#009DBB"/>
<path d="M179.889 64.8984L188.348 60.7499L190.96 66.0761L189.882 66.6047L187.867 62.496L185.407 63.7026L186.924 66.7968L185.834 67.3317L184.316 64.2375L181.577 65.5809L183.742 69.994L182.651 70.5289L179.889 64.8984Z" fill="#009DBB"/>
<path d="M184.455 74.9785L193.371 71.9356L194.343 74.7828C194.702 75.8344 194.709 76.7023 194.366 77.3867C194.031 78.068 193.503 78.5319 192.781 78.7782C191.543 79.201 190.527 78.9358 189.734 77.9826L186.636 81.3681L186.143 79.9244L189.14 76.7674L188.529 74.9762L184.879 76.2217L184.455 74.9785ZM189.611 74.6067L190.195 76.3177C190.384 76.8702 190.661 77.2434 191.025 77.4374C191.399 77.6282 191.822 77.6431 192.294 77.4819C192.784 77.3146 193.111 77.0339 193.275 76.6396C193.448 76.2424 193.443 75.7764 193.261 75.2417L192.686 73.5574L189.611 74.6067Z" fill="#009DBB"/>
<path fill-rule="evenodd" clip-rule="evenodd" d="M176.208 105.227C176.208 144.401 144.451 176.158 105.277 176.158C66.1033 176.158 34.3467 144.401 34.3467 105.227C34.3467 66.0535 66.1033 34.2969 105.277 34.2969C144.451 34.2969 176.208 66.0535 176.208 105.227ZM67.7323 111.984C68.3574 112.666 68.6467 113.533 68.612 114.376C68.5773 115.231 68.2185 116.064 67.5356 116.688C66.1813 117.936 64.0632 117.855 62.8131 116.491C62.1881 115.809 61.8987 114.943 61.9335 114.099C61.9682 113.244 62.327 112.412 63.0099 111.787C64.3641 110.551 66.4823 110.632 67.7323 111.984ZM114.561 91.1676C114.561 91.0867 114.573 90.9942 114.584 90.9133L83.1015 77.1719C82.8121 77.6226 82.4649 78.0387 82.0597 78.4085C81.6546 78.7783 81.2148 79.0788 80.7402 79.3331L91.8866 111.786C92.7316 111.774 93.5649 111.982 94.3173 112.398L104.653 102.887L114.99 93.375C114.677 92.67 114.527 91.9188 114.561 91.1676ZM71.3203 116.248L87.2238 117.704C87.409 118.513 87.8026 119.276 88.3813 119.9C88.9948 120.559 89.7471 121.01 90.5573 121.252L90.893 133.954L91.0319 139.466C90.5689 139.651 90.1291 139.905 89.724 140.241L69.8271 118.687C70.5101 117.993 71.0193 117.161 71.3203 116.248ZM77.8015 80.0873H77.489C77.0376 80.0641 76.6093 79.9948 76.1695 79.9023L66.9561 108.136C68.1019 108.448 69.1321 109.061 69.9539 109.951C70.822 110.875 71.366 112.02 71.5628 113.245L87.501 114.712C87.7673 114.1 88.1608 113.534 88.6701 113.071C88.7858 112.967 88.9016 112.863 89.0289 112.771L77.8015 80.0873ZM96.7694 117.148C96.862 116.293 96.7231 115.426 96.3643 114.629L117.037 95.6172C117.8 96.0448 118.669 96.2413 119.525 96.2297L131.493 129.734C131.053 129.976 130.625 130.277 130.243 130.624C129.861 130.982 129.537 131.375 129.248 131.791L96.7694 117.148ZM117.436 71.4652C116.082 71.2109 114.855 70.5522 113.906 69.5236C113.037 68.5875 112.482 67.4318 112.297 66.1836L84.043 72.7018C84.1124 73.1294 84.1471 73.557 84.124 73.9847C84.124 74.0887 84.1124 74.1927 84.1008 74.2967L105.016 83.4268L115.804 88.1421C115.908 88.0266 116.012 87.911 116.128 87.807C116.626 87.3447 117.193 87.0095 117.795 86.8015L117.447 72.0084L117.436 71.4652ZM141.96 90.5583C141.369 91.1015 140.895 91.7372 140.559 92.4422L124.158 90.4312C123.996 89.5875 123.602 88.767 122.977 88.0851C122.364 87.4264 121.612 86.9756 120.813 86.7329L120.454 71.4891V71.2811C121.357 71.0037 122.19 70.5414 122.896 69.8827L122.908 69.8711L141.96 90.5583ZM134.428 128.949H134.822C135.227 128.972 135.62 129.03 136.014 129.11L144.463 101.316C143.364 101.004 142.368 100.391 141.581 99.5358C140.528 98.3916 139.938 96.9354 139.903 95.3983L123.791 93.4336C123.536 93.9883 123.166 94.4968 122.691 94.936C122.587 95.0285 122.483 95.1209 122.379 95.2018L134.428 128.949ZM96.7496 140.773C95.9972 139.964 95.0481 139.455 94.0527 139.236L93.5781 121.195C94.18 120.987 94.7356 120.652 95.2333 120.201C95.3032 120.139 95.3679 120.072 95.4309 120.006L95.431 120.006C95.4618 119.974 95.4923 119.942 95.5227 119.912L128.221 134.671C128.217 134.711 128.212 134.752 128.207 134.793C128.197 134.88 128.186 134.969 128.186 135.064C128.175 135.48 128.198 135.896 128.256 136.3L97.9649 143.015C97.7566 142.183 97.3515 141.42 96.7496 140.773ZM80.0112 76.1768C80.6941 75.5527 81.0529 74.7206 81.0876 73.8654C81.1223 73.0101 80.833 72.1434 80.2079 71.473C78.9579 70.1093 76.8397 70.0284 75.4855 71.2766C74.8026 71.9007 74.4438 72.7328 74.409 73.588C74.3743 74.4317 74.6637 75.2985 75.2887 75.9803C76.5388 77.3441 78.6569 77.425 80.0112 76.1768ZM120.849 67.6729C119.495 68.9211 117.377 68.8402 116.127 67.4764C115.502 66.7945 115.212 65.9278 115.247 65.0841C115.282 64.2289 115.64 63.3967 116.323 62.7727C117.678 61.5245 119.796 61.6054 121.046 62.9691C121.671 63.651 121.96 64.5178 121.925 65.3615C121.891 66.2051 121.532 67.0488 120.849 67.6729ZM142.931 95.0978C142.896 95.9414 143.185 96.8082 143.81 97.4901C145.06 98.8423 147.178 98.9347 148.533 97.6866C149.216 97.0625 149.574 96.2304 149.609 95.3751C149.644 94.5315 149.354 93.6647 148.729 92.9828C147.479 91.6191 145.361 91.5382 144.007 92.7863C143.324 93.4104 142.965 94.2425 142.931 95.0978ZM131.217 135.168C131.251 134.313 131.61 133.481 132.293 132.857C133.647 131.608 135.766 131.689 137.016 133.053C137.641 133.735 137.93 134.602 137.895 135.445C137.861 136.301 137.502 137.133 136.819 137.757C135.465 139.005 133.346 138.924 132.096 137.56C131.471 136.89 131.182 136.023 131.217 135.168ZM95.4237 141.995C94.1737 140.631 92.0555 140.55 90.7013 141.798C90.0184 142.422 89.6596 143.266 89.6249 144.109C89.5901 144.953 89.8795 145.82 90.5045 146.502C91.7546 147.866 93.8727 147.946 95.227 146.698C95.9099 146.074 96.2687 145.242 96.3034 144.387C96.3381 143.543 96.0488 142.676 95.4237 141.995Z" fill="#009DBB"/>
</g>
<defs>
<clipPath id="clip0_412_1976">
<rect width="210" height="210" fill="white"/>
</clipPath>
</defs>
</svg>
