<svg width="228" height="70" viewBox="0 0 228 70" fill="none" xmlns="http://www.w3.org/2000/svg">
<path d="M14.4144 35V49.8485H10.9624V43.7606H4.18634V49.8485H0.734375V35H4.18634V40.8545H10.9624V35H14.4144Z" fill="#585858"/>
<path d="M32.4085 47.0909V49.8485H20.8594V35H32.1315V37.7576H24.29V40.9818H31.2153V43.6545H24.29V47.0909H32.4085Z" fill="#585858"/>
<path d="M47.8929 46.6667H40.9677L39.6466 49.8485H36.1094L42.7576 35H46.1669L52.8365 49.8485H49.214L47.8929 46.6667ZM46.8062 44.0576L44.441 38.3727L42.0757 44.0576H46.8062Z" fill="#585858"/>
<path d="M57.3047 35H60.7566V47.0485H68.2359V49.8485H57.3047V35Z" fill="#585858"/>
<path d="M74.7887 37.8H70.0156V35H83.0137V37.8H78.2407V49.8485H74.7887V37.8Z" fill="#585858"/>
<path d="M101.461 35V49.8485H98.0093V43.7606H91.2332V49.8485H87.7812V35H91.2332V40.8545H98.0093V35H101.461Z" fill="#585858"/>
<path d="M115.07 44.5879V49.8485H111.618V44.5455L105.844 35H109.509L113.494 41.597L117.478 35H120.866L115.07 44.5879Z" fill="#585858"/>
<path d="M140.644 35C141.965 35 143.108 35.2192 144.075 35.6576C145.055 36.0959 145.807 36.7182 146.333 37.5242C146.859 38.3303 147.122 39.2849 147.122 40.3879C147.122 41.4768 146.859 42.4313 146.333 43.2515C145.807 44.0576 145.055 44.6798 144.075 45.1182C143.108 45.5424 141.965 45.7545 140.644 45.7545H137.639V49.8485H134.188V35H140.644ZM140.452 42.9545C141.489 42.9545 142.277 42.7353 142.817 42.297C143.357 41.8444 143.627 41.208 143.627 40.3879C143.627 39.5535 143.357 38.9171 142.817 38.4788C142.277 38.0262 141.489 37.8 140.452 37.8H137.639V42.9545H140.452Z" fill="#585858"/>
<path d="M166.18 35V49.8485H162.728V43.7606H155.952V49.8485H152.5V35H155.952V40.8545H162.728V35H166.18Z" fill="#585858"/>
<path d="M182.455 46.6667H175.53L174.209 49.8485H170.672L177.32 35H180.729L187.399 49.8485H183.777L182.455 46.6667ZM181.369 44.0576L179.003 38.3727L176.638 44.0576H181.369Z" fill="#585858"/>
<path d="M201.371 49.8485L198.494 45.7121H195.319V49.8485H191.867V35H198.324C199.645 35 200.788 35.2192 201.754 35.6576C202.734 36.0959 203.487 36.7182 204.013 37.5242C204.538 38.3303 204.801 39.2849 204.801 40.3879C204.801 41.4909 204.531 42.4455 203.992 43.2515C203.465 44.0435 202.713 44.6515 201.733 45.0758L205.078 49.8485H201.371ZM201.307 40.3879C201.307 39.5535 201.036 38.9171 200.497 38.4788C199.957 38.0262 199.169 37.8 198.132 37.8H195.319V42.9758H198.132C199.169 42.9758 199.957 42.7495 200.497 42.297C201.036 41.8444 201.307 41.208 201.307 40.3879Z" fill="#585858"/>
<path d="M224.027 49.8485L224.005 40.9394L219.616 48.2788H218.06L213.692 41.1303V49.8485H210.453V35H213.308L218.891 44.2273L224.389 35H227.223L227.265 49.8485H224.027Z" fill="#585858"/>
<path d="M18.2471 64.7025C18.4709 64.9729 18.7134 65.1638 18.9744 65.2752C19.2407 65.3865 19.5283 65.4422 19.8373 65.4422C20.1356 65.4422 20.4046 65.3865 20.6443 65.2752C20.884 65.1638 21.0865 64.9941 21.2516 64.7661C21.4221 64.5381 21.5526 64.2517 21.6432 63.907C21.7337 63.557 21.779 63.146 21.779 62.674C21.779 62.1968 21.739 61.7937 21.6591 61.465C21.5846 61.1309 21.4754 60.8604 21.3315 60.6536C21.1877 60.4468 21.0119 60.2956 20.8041 60.2002C20.6017 60.1047 20.37 60.057 20.109 60.057C19.6988 60.057 19.3498 60.1445 19.0622 60.3195C18.7745 60.4892 18.5028 60.7305 18.2471 61.0434V64.7025ZM18.1433 59.7706C18.4789 59.3941 18.8597 59.0892 19.2859 58.8559C19.7121 58.6225 20.2128 58.5059 20.7882 58.5059C21.2356 58.5059 21.6432 58.5987 22.0107 58.7843C22.3836 58.9699 22.7034 59.2403 22.9697 59.5956C23.2414 59.9456 23.449 60.3805 23.5929 60.9002C23.742 61.4146 23.8167 62.0059 23.8167 62.674C23.8167 63.2839 23.7342 63.8487 23.569 64.3684C23.4039 64.8881 23.1667 65.3388 22.8577 65.7206C22.5541 66.1025 22.1839 66.4021 21.747 66.6195C21.3155 66.8316 20.8308 66.9377 20.2927 66.9377C19.8346 66.9377 19.4431 66.8687 19.1181 66.7309C18.7932 66.5877 18.5028 66.3915 18.2471 66.1422V69.4831H16.2734V58.657H17.48C17.7357 58.657 17.9035 58.7763 17.9834 59.015L18.1433 59.7706Z" fill="#585858"/>
<path d="M28.9087 60.0729C29.1644 59.585 29.468 59.2032 29.8196 58.9275C30.1712 58.6464 30.5867 58.5059 31.0662 58.5059C31.4444 58.5059 31.748 58.5881 31.9771 58.7525L31.8493 60.224C31.8226 60.3195 31.7827 60.3884 31.7294 60.4309C31.6815 60.468 31.6149 60.4865 31.5296 60.4865C31.4497 60.4865 31.3299 60.4733 31.1701 60.4468C31.0156 60.4203 30.8637 60.407 30.7146 60.407C30.4962 60.407 30.3017 60.4388 30.1313 60.5025C29.9608 60.5661 29.8063 60.6589 29.6678 60.7809C29.5346 60.8975 29.4148 61.0407 29.3082 61.2104C29.207 61.3801 29.1111 61.5737 29.0206 61.7911V66.8184H27.0469V58.657H28.2055C28.408 58.657 28.5491 58.6941 28.629 58.7684C28.7089 58.8373 28.7622 58.9646 28.7888 59.1502L28.9087 60.0729Z" fill="#585858"/>
<path d="M36.7534 58.6567V66.8181H34.7717V58.6567H36.7534ZM37.025 56.2783C37.025 56.448 36.9904 56.6071 36.9212 56.7556C36.8519 56.9041 36.7587 57.034 36.6415 57.1454C36.5296 57.2567 36.3964 57.3469 36.242 57.4158C36.0875 57.4794 35.9223 57.5113 35.7465 57.5113C35.5761 57.5113 35.4136 57.4794 35.2591 57.4158C35.11 57.3469 34.9794 57.2567 34.8676 57.1454C34.7557 57.034 34.6651 56.9041 34.5959 56.7556C34.532 56.6071 34.5 56.448 34.5 56.2783C34.5 56.1033 34.532 55.9389 34.5959 55.7851C34.6651 55.6313 34.7557 55.4988 34.8676 55.3874C34.9794 55.276 35.11 55.1885 35.2591 55.1249C35.4136 55.056 35.5761 55.0215 35.7465 55.0215C35.9223 55.0215 36.0875 55.056 36.242 55.1249C36.3964 55.1885 36.5296 55.276 36.6415 55.3874C36.7587 55.4988 36.8519 55.6313 36.9212 55.7851C36.9904 55.9389 37.025 56.1033 37.025 56.2783Z" fill="#585858"/>
<path d="M47.849 58.6562L44.5968 66.8176H42.8069L39.5547 58.6562H41.1848C41.3339 58.6562 41.4565 58.6907 41.5524 58.7597C41.6536 58.8286 41.7202 58.9161 41.7521 59.0222L43.3343 63.3813C43.4195 63.6358 43.4941 63.885 43.558 64.129C43.6219 64.3729 43.6779 64.6169 43.7258 64.8608C43.7791 64.6169 43.8377 64.3729 43.9016 64.129C43.9655 63.885 44.0428 63.6358 44.1333 63.3813L45.7474 59.0222C45.7847 58.9161 45.8513 58.8286 45.9472 58.7597C46.0431 58.6907 46.1576 58.6562 46.2908 58.6562H47.849Z" fill="#585858"/>
<path d="M54.7268 63.3343C54.1568 63.3608 53.6773 63.4112 53.2884 63.4854C52.8996 63.5543 52.5879 63.6445 52.3535 63.7559C52.1191 63.8672 51.9513 63.9971 51.8501 64.1456C51.7489 64.2941 51.6983 64.4559 51.6983 64.6309C51.6983 64.9756 51.7995 65.2221 52.0019 65.3706C52.2097 65.5191 52.4787 65.5934 52.809 65.5934C53.2139 65.5934 53.5628 65.5218 53.8558 65.3786C54.1541 65.2301 54.4444 65.0074 54.7268 64.7104V63.3343ZM50.204 59.7945C51.1469 58.9354 52.2816 58.5059 53.6081 58.5059C54.0875 58.5059 54.5163 58.5854 54.8946 58.7445C55.2728 58.8983 55.5924 59.1157 55.8534 59.3968C56.1145 59.6725 56.3116 60.004 56.4447 60.3911C56.5832 60.7782 56.6525 61.2025 56.6525 61.6638V66.8184H55.7575C55.5711 66.8184 55.4273 66.7918 55.326 66.7388C55.2248 66.6805 55.1449 66.5665 55.0863 66.3968L54.9105 65.8081C54.7028 65.9937 54.5003 66.1581 54.3032 66.3013C54.1061 66.4392 53.901 66.5559 53.688 66.6513C53.4749 66.7468 53.2458 66.8184 53.0008 66.8661C52.7611 66.9191 52.4947 66.9456 52.2017 66.9456C51.8554 66.9456 51.5358 66.9006 51.2428 66.8104C50.9498 66.715 50.6968 66.5744 50.4837 66.3888C50.2706 66.2032 50.1055 65.9725 49.9883 65.6968C49.8711 65.421 49.8125 65.1002 49.8125 64.7343C49.8125 64.5275 49.8471 64.3233 49.9164 64.1218C49.9856 63.915 50.0975 63.7187 50.252 63.5331C50.4118 63.3475 50.6169 63.1725 50.8673 63.0081C51.1176 62.8437 51.4239 62.7006 51.7862 62.5786C52.1538 62.4566 52.5799 62.3585 53.0647 62.2843C53.5495 62.2047 54.1035 62.157 54.7268 62.1411V61.6638C54.7268 61.1176 54.6096 60.7146 54.3752 60.4547C54.1408 60.1896 53.8025 60.057 53.3603 60.057C53.0407 60.057 52.7744 60.0941 52.5613 60.1684C52.3535 60.2426 52.1697 60.3275 52.0099 60.4229C51.8501 60.5131 51.7036 60.5953 51.5704 60.6695C51.4426 60.7437 51.2988 60.7809 51.1389 60.7809C51.0004 60.7809 50.8832 60.7464 50.7874 60.6775C50.6915 60.6032 50.6142 60.5184 50.5556 60.4229L50.204 59.7945Z" fill="#585858"/>
<path d="M62.8266 66.9446C62.1128 66.9446 61.5641 66.7457 61.1805 66.348C60.8023 65.9449 60.6132 65.3908 60.6132 64.6855V60.1275H59.7742C59.6676 60.1275 59.5771 60.0931 59.5025 60.0241C59.4279 59.9552 59.3906 59.8518 59.3906 59.7139V58.9343L60.7091 58.7196L61.1246 56.4923C61.1512 56.3862 61.2018 56.304 61.2764 56.2457C61.351 56.1874 61.4469 56.1582 61.5641 56.1582H62.5869V58.7275H64.7763V60.1275H62.5869V64.5502C62.5869 64.8048 62.6481 65.0037 62.7707 65.1468C62.8985 65.29 63.0717 65.3616 63.2901 65.3616C63.4126 65.3616 63.5138 65.3484 63.5937 65.3218C63.6789 65.29 63.7509 65.2582 63.8095 65.2264C63.8734 65.1946 63.9293 65.1654 63.9773 65.1389C64.0252 65.1071 64.0731 65.0912 64.1211 65.0912C64.1797 65.0912 64.2276 65.1071 64.2649 65.1389C64.3022 65.1654 64.3422 65.2078 64.3848 65.2662L64.9761 66.2207C64.6884 66.4593 64.3581 66.6396 63.9853 66.7616C63.6124 66.8836 63.2261 66.9446 62.8266 66.9446Z" fill="#585858"/>
<path d="M72.9481 61.7986C72.9481 61.5441 72.9108 61.3054 72.8362 61.0827C72.7669 60.8547 72.6604 60.6558 72.5166 60.4861C72.3727 60.3164 72.1889 60.1838 71.9652 60.0884C71.7468 59.9876 71.4911 59.9373 71.1981 59.9373C70.6281 59.9373 70.178 60.099 69.8477 60.4225C69.5227 60.746 69.315 61.2047 69.2244 61.7986H72.9481ZM69.1845 62.9838C69.2164 63.4028 69.291 63.766 69.4082 64.0736C69.5254 64.3759 69.6799 64.6278 69.8717 64.8293C70.0634 65.0255 70.2898 65.174 70.5509 65.2747C70.8172 65.3702 71.1102 65.4179 71.4298 65.4179C71.7495 65.4179 72.0238 65.3808 72.2529 65.3066C72.4873 65.2323 72.6897 65.1501 72.8601 65.06C73.0359 64.9698 73.1878 64.8876 73.3156 64.8134C73.4488 64.7391 73.5767 64.702 73.6992 64.702C73.8643 64.702 73.9868 64.763 74.0667 64.885L74.6341 65.6009C74.4157 65.8554 74.1706 66.0702 73.8989 66.2452C73.6273 66.4149 73.3423 66.5528 73.0439 66.6588C72.7509 66.7596 72.45 66.8312 72.141 66.8736C71.8374 66.916 71.5417 66.9372 71.254 66.9372C70.684 66.9372 70.154 66.8444 69.6639 66.6588C69.1738 66.4679 68.7476 66.1895 68.3854 65.8236C68.0231 65.4524 67.7381 64.9963 67.5304 64.4554C67.3226 63.9092 67.2188 63.2782 67.2188 62.5622C67.2188 62.0054 67.3093 61.4831 67.4904 60.9952C67.6716 60.502 67.9299 60.0751 68.2655 59.7145C68.6065 59.3486 69.0193 59.0596 69.5041 58.8475C69.9942 58.6354 70.5455 58.5293 71.1581 58.5293C71.6749 58.5293 72.1516 58.6115 72.5885 58.7759C73.0253 58.9403 73.4009 59.1816 73.7152 59.4997C74.0295 59.8126 74.2745 60.1997 74.4503 60.6611C74.6314 61.1172 74.722 61.6395 74.722 62.2282C74.722 62.5251 74.69 62.7266 74.6261 62.8327C74.5622 62.9335 74.4396 62.9838 74.2585 62.9838H69.1845Z" fill="#585858"/>
<path d="M85.4815 54.998V66.8185H83.5078V54.998H85.4815Z" fill="#585858"/>
<path d="M93.4768 63.3343C92.9068 63.3608 92.4273 63.4112 92.0384 63.4854C91.6496 63.5543 91.3379 63.6445 91.1035 63.7559C90.8691 63.8672 90.7013 63.9971 90.6001 64.1456C90.4989 64.2941 90.4483 64.4559 90.4483 64.6309C90.4483 64.9756 90.5495 65.2221 90.7519 65.3706C90.9597 65.5191 91.2287 65.5934 91.559 65.5934C91.9639 65.5934 92.3128 65.5218 92.6058 65.3786C92.9041 65.2301 93.1944 65.0074 93.4768 64.7104V63.3343ZM88.954 59.7945C89.8969 58.9354 91.0316 58.5059 92.3581 58.5059C92.8375 58.5059 93.2663 58.5854 93.6446 58.7445C94.0228 58.8983 94.3424 59.1157 94.6034 59.3968C94.8645 59.6725 95.0616 60.004 95.1947 60.3911C95.3333 60.7782 95.4025 61.2025 95.4025 61.6638V66.8184H94.5075C94.3211 66.8184 94.1773 66.7918 94.0761 66.7388C93.9748 66.6805 93.8949 66.5665 93.8363 66.3968L93.6605 65.8081C93.4528 65.9937 93.2504 66.1581 93.0533 66.3013C92.8561 66.4392 92.6511 66.5559 92.438 66.6513C92.2249 66.7468 91.9958 66.8184 91.7508 66.8661C91.5111 66.9191 91.2447 66.9456 90.9517 66.9456C90.6054 66.9456 90.2858 66.9006 89.9928 66.8104C89.6998 66.715 89.4468 66.5744 89.2337 66.3888C89.0206 66.2032 88.8555 65.9725 88.7383 65.6968C88.6211 65.421 88.5625 65.1002 88.5625 64.7343C88.5625 64.5275 88.5971 64.3233 88.6664 64.1218C88.7356 63.915 88.8475 63.7187 89.002 63.5331C89.1618 63.3475 89.3669 63.1725 89.6173 63.0081C89.8676 62.8437 90.1739 62.7006 90.5362 62.5786C90.9038 62.4566 91.3299 62.3585 91.8147 62.2843C92.2995 62.2047 92.8535 62.157 93.4768 62.1411V61.6638C93.4768 61.1176 93.3596 60.7146 93.1252 60.4547C92.8908 60.1896 92.5525 60.057 92.1104 60.057C91.7907 60.057 91.5244 60.0941 91.3113 60.1684C91.1035 60.2426 90.9197 60.3275 90.7599 60.4229C90.6001 60.5131 90.4536 60.5953 90.3204 60.6695C90.1926 60.7437 90.0488 60.7809 89.889 60.7809C89.7504 60.7809 89.6332 60.7464 89.5374 60.6775C89.4415 60.6032 89.3642 60.5184 89.3056 60.4229L88.954 59.7945Z" fill="#585858"/>
<path d="M100.927 64.7026C101.151 64.973 101.393 65.164 101.654 65.2753C101.92 65.3867 102.2 65.4424 102.493 65.4424C102.797 65.4424 103.068 65.3893 103.308 65.2833C103.553 65.1719 103.761 65.0022 103.931 64.7742C104.102 64.5408 104.232 64.2465 104.323 63.8912C104.413 63.5306 104.459 63.1011 104.459 62.6026C104.459 61.7064 104.31 61.0594 104.011 60.6617C103.713 60.2587 103.284 60.0571 102.725 60.0571C102.346 60.0571 102.016 60.1446 101.734 60.3196C101.452 60.4893 101.183 60.7306 100.927 61.0435V64.7026ZM100.927 59.6594C101.257 59.3147 101.622 59.0416 102.022 58.8401C102.426 58.6333 102.887 58.5299 103.404 58.5299C103.878 58.5299 104.304 58.6227 104.682 58.8083C105.066 58.9939 105.391 59.2617 105.657 59.6117C105.929 59.9564 106.137 60.3753 106.281 60.8685C106.424 61.3617 106.496 61.9159 106.496 62.531C106.496 63.1939 106.414 63.7958 106.249 64.3367C106.083 64.8776 105.846 65.3416 105.537 65.7287C105.234 66.1105 104.866 66.4075 104.435 66.6196C104.003 66.8318 103.524 66.9378 102.996 66.9378C102.741 66.9378 102.509 66.9113 102.301 66.8583C102.093 66.8105 101.902 66.7416 101.726 66.6515C101.55 66.5613 101.388 66.4526 101.238 66.3253C101.095 66.1927 100.956 66.0469 100.823 65.8878L100.735 66.4367C100.703 66.5746 100.647 66.6727 100.567 66.731C100.493 66.7893 100.389 66.8185 100.256 66.8185H98.9531V54.998H100.927V59.6594Z" fill="#585858"/>
<path d="M114.995 61.7986C114.995 61.5441 114.958 61.3054 114.884 61.0827C114.814 60.8547 114.708 60.6558 114.564 60.4861C114.42 60.3164 114.236 60.1838 114.012 60.0884C113.794 59.9876 113.538 59.9373 113.245 59.9373C112.675 59.9373 112.225 60.099 111.895 60.4225C111.57 60.746 111.362 61.2047 111.272 61.7986H114.995ZM111.231 62.9838C111.263 63.4028 111.338 63.766 111.455 64.0736C111.572 64.3759 111.727 64.6278 111.919 64.8293C112.11 65.0255 112.337 65.174 112.598 65.2747C112.865 65.3702 113.158 65.4179 113.477 65.4179C113.797 65.4179 114.071 65.3808 114.3 65.3066C114.534 65.2323 114.737 65.1501 114.907 65.06C115.083 64.9698 115.235 64.8876 115.363 64.8134C115.496 64.7391 115.624 64.702 115.747 64.702C115.912 64.702 116.034 64.763 116.114 64.885L116.681 65.6009C116.463 65.8554 116.217 66.0702 115.946 66.2452C115.674 66.4149 115.39 66.5528 115.091 66.6588C114.798 66.7596 114.497 66.8312 114.188 66.8736C113.884 66.916 113.589 66.9372 113.301 66.9372C112.731 66.9372 112.201 66.8444 111.711 66.6588C111.221 66.4679 110.795 66.1895 110.432 65.8236C110.07 65.4524 109.786 64.9963 109.578 64.4554C109.37 63.9092 109.266 63.2782 109.266 62.5622C109.266 62.0054 109.356 61.4831 109.537 60.9952C109.718 60.502 109.977 60.0751 110.313 59.7145C110.654 59.3486 111.066 59.0596 111.551 58.8475C112.041 58.6354 112.593 58.5293 113.206 58.5293C113.722 58.5293 114.199 58.6115 114.635 58.7759C115.072 58.9403 115.448 59.1816 115.763 59.4997C116.077 59.8126 116.322 60.1997 116.498 60.6611C116.679 61.1172 116.769 61.6395 116.769 62.2282C116.769 62.5251 116.737 62.7266 116.673 62.8327C116.61 62.9335 116.487 62.9838 116.306 62.9838H111.231Z" fill="#585858"/>
<path d="M121.943 54.998V66.8185H119.969V54.998H121.943Z" fill="#585858"/>
<path d="M137.055 60.3827C136.996 60.4569 136.938 60.5153 136.879 60.5577C136.826 60.6001 136.746 60.6213 136.639 60.6213C136.538 60.6213 136.44 60.5922 136.344 60.5338C136.248 60.4702 136.133 60.4013 136 60.327C135.867 60.2475 135.707 60.1785 135.521 60.1202C135.339 60.0566 135.114 60.0248 134.842 60.0248C134.496 60.0248 134.192 60.0884 133.931 60.2157C133.67 60.3376 133.452 60.5153 133.276 60.7486C133.105 60.9819 132.977 61.2657 132.892 61.5998C132.807 61.9285 132.764 62.3024 132.764 62.7213C132.764 63.1562 132.809 63.5433 132.9 63.8827C132.996 64.2221 133.132 64.5085 133.308 64.7418C133.484 64.9698 133.697 65.1448 133.947 65.2668C134.197 65.3835 134.48 65.4418 134.794 65.4418C135.108 65.4418 135.361 65.4047 135.553 65.3304C135.75 65.2509 135.915 65.166 136.048 65.0759C136.181 64.9804 136.296 64.8956 136.392 64.8213C136.493 64.7418 136.605 64.702 136.728 64.702C136.888 64.702 137.007 64.763 137.087 64.885L137.655 65.6009C137.436 65.8554 137.199 66.0702 136.943 66.2452C136.687 66.4149 136.421 66.5528 136.144 66.6588C135.872 66.7596 135.59 66.8312 135.297 66.8736C135.009 66.916 134.722 66.9372 134.434 66.9372C133.928 66.9372 133.452 66.8444 133.004 66.6588C132.557 66.4679 132.165 66.1922 131.829 65.8316C131.493 65.471 131.227 65.0308 131.03 64.5111C130.838 63.9861 130.742 63.3895 130.742 62.7213C130.742 62.1221 130.827 61.5679 130.998 61.0588C131.174 60.5444 131.429 60.1016 131.765 59.7304C132.101 59.3539 132.516 59.0596 133.012 58.8475C133.507 58.6354 134.077 58.5293 134.722 58.5293C135.334 58.5293 135.87 58.6274 136.328 58.8236C136.792 59.0198 137.207 59.3009 137.575 59.6668L137.055 60.3827Z" fill="#585858"/>
<path d="M144.067 58.5293C144.674 58.5293 145.226 58.6274 145.721 58.8236C146.222 59.0198 146.648 59.2982 147 59.6588C147.357 60.0194 147.631 60.4596 147.822 60.9793C148.014 61.499 148.11 62.0797 148.11 62.7213C148.11 63.3683 148.014 63.9516 147.822 64.4713C147.631 64.991 147.357 65.4338 147 65.7998C146.648 66.1657 146.222 66.4467 145.721 66.6429C145.226 66.8391 144.674 66.9372 144.067 66.9372C143.454 66.9372 142.898 66.8391 142.397 66.6429C141.896 66.4467 141.467 66.1657 141.11 65.7998C140.759 65.4338 140.485 64.991 140.288 64.4713C140.096 63.9516 140 63.3683 140 62.7213C140 62.0797 140.096 61.499 140.288 60.9793C140.485 60.4596 140.759 60.0194 141.11 59.6588C141.467 59.2982 141.896 59.0198 142.397 58.8236C142.898 58.6274 143.454 58.5293 144.067 58.5293ZM144.067 65.4259C144.749 65.4259 145.253 65.1979 145.577 64.7418C145.908 64.2857 146.073 63.6176 146.073 62.7372C146.073 61.8569 145.908 61.1861 145.577 60.7248C145.253 60.2634 144.749 60.0327 144.067 60.0327C143.374 60.0327 142.861 60.266 142.525 60.7327C142.195 61.1941 142.03 61.8622 142.03 62.7372C142.03 63.6122 142.195 64.2804 142.525 64.7418C142.861 65.1979 143.374 65.4259 144.067 65.4259Z" fill="#585858"/>
<path d="M156.32 60.2475C156.267 60.3323 156.211 60.3933 156.152 60.4304C156.093 60.4622 156.019 60.4782 155.928 60.4782C155.832 60.4782 155.729 60.4516 155.617 60.3986C155.511 60.3456 155.385 60.2873 155.241 60.2236C155.097 60.1547 154.932 60.0937 154.746 60.0407C154.565 59.9876 154.349 59.9611 154.099 59.9611C153.71 59.9611 153.403 60.0433 153.18 60.2077C152.961 60.3721 152.852 60.5869 152.852 60.852C152.852 61.027 152.908 61.1755 153.02 61.2975C153.137 61.4141 153.289 61.5176 153.476 61.6077C153.667 61.6979 153.883 61.7801 154.122 61.8543C154.362 61.9232 154.605 62.0001 154.85 62.085C155.1 62.1698 155.346 62.2679 155.585 62.3793C155.825 62.4854 156.038 62.6232 156.224 62.7929C156.416 62.9573 156.568 63.1562 156.679 63.3895C156.797 63.6229 156.855 63.9039 156.855 64.2327C156.855 64.6251 156.784 64.9884 156.64 65.3225C156.502 65.6513 156.294 65.9376 156.017 66.1816C155.74 66.4202 155.396 66.6085 154.985 66.7463C154.581 66.8789 154.112 66.9452 153.579 66.9452C153.297 66.9452 153.02 66.9187 152.748 66.8657C152.482 66.8179 152.224 66.749 151.973 66.6588C151.728 66.5687 151.499 66.4626 151.286 66.3407C151.079 66.2187 150.894 66.0861 150.734 65.9429L151.19 65.1952C151.249 65.1051 151.318 65.0361 151.398 64.9884C151.478 64.9407 151.579 64.9168 151.702 64.9168C151.824 64.9168 151.938 64.9513 152.045 65.0202C152.157 65.0891 152.285 65.1634 152.428 65.2429C152.572 65.3225 152.741 65.3967 152.932 65.4657C153.129 65.5346 153.377 65.5691 153.675 65.5691C153.909 65.5691 154.11 65.5426 154.275 65.4895C154.445 65.4312 154.584 65.3569 154.69 65.2668C154.802 65.1766 154.882 65.0732 154.93 64.9566C154.983 64.8346 155.01 64.71 155.01 64.5827C155.01 64.3918 154.951 64.2354 154.834 64.1134C154.722 63.9914 154.57 63.8854 154.378 63.7952C154.192 63.7051 153.976 63.6255 153.731 63.5566C153.492 63.4823 153.243 63.4028 152.988 63.3179C152.737 63.2331 152.49 63.135 152.245 63.0236C152.005 62.9069 151.789 62.7611 151.597 62.5861C151.411 62.4111 151.26 62.1963 151.142 61.9418C151.031 61.6872 150.974 61.3797 150.974 61.0191C150.974 60.685 151.041 60.3668 151.174 60.0645C151.308 59.7622 151.501 59.4997 151.757 59.277C152.018 59.049 152.341 58.8687 152.725 58.7361C153.113 58.5982 153.561 58.5293 154.067 58.5293C154.632 58.5293 155.145 58.6221 155.609 58.8077C156.072 58.9933 156.459 59.2373 156.768 59.5395L156.32 60.2475Z" fill="#585858"/>
<path d="M160.031 66.8179V58.6566H161.237C161.493 58.6566 161.661 58.7759 161.741 59.0145L161.869 59.6191C162.013 59.46 162.162 59.3141 162.317 59.1816C162.476 59.049 162.644 58.935 162.819 58.8395C163.001 58.7441 163.192 58.6698 163.395 58.6168C163.603 58.5585 163.829 58.5293 164.075 58.5293C164.591 58.5293 165.014 58.6698 165.345 58.9509C165.68 59.2266 165.93 59.5952 166.096 60.0566C166.223 59.7861 166.383 59.5554 166.575 59.3645C166.767 59.1683 166.978 59.0092 167.207 58.8872C167.436 58.7653 167.678 58.6751 167.933 58.6168C168.195 58.5585 168.456 58.5293 168.717 58.5293C169.169 58.5293 169.572 58.5982 169.924 58.7361C170.275 58.874 170.57 59.0755 170.81 59.3407C171.05 59.6058 171.231 59.9293 171.353 60.3111C171.481 60.6929 171.545 61.1304 171.545 61.6236V66.8179H169.572V61.6236C169.572 61.1039 169.457 60.7141 169.228 60.4543C168.999 60.1891 168.663 60.0566 168.221 60.0566C168.019 60.0566 167.83 60.091 167.654 60.16C167.484 60.2289 167.332 60.3297 167.198 60.4622C167.07 60.5895 166.969 60.7513 166.895 60.9475C166.82 61.1437 166.783 61.3691 166.783 61.6236V66.8179H164.801V61.6236C164.801 61.0774 164.689 60.6797 164.466 60.4304C164.247 60.1812 163.925 60.0566 163.499 60.0566C163.212 60.0566 162.942 60.1282 162.692 60.2713C162.447 60.4092 162.217 60.6001 162.004 60.8441V66.8179H160.031Z" fill="#585858"/>
<path d="M180.401 61.7986C180.401 61.5441 180.363 61.3054 180.289 61.0827C180.22 60.8547 180.113 60.6558 179.969 60.4861C179.825 60.3164 179.642 60.1838 179.418 60.0884C179.2 59.9876 178.944 59.9373 178.651 59.9373C178.081 59.9373 177.631 60.099 177.3 60.4225C176.975 60.746 176.768 61.2047 176.677 61.7986H180.401ZM176.638 62.9838C176.67 63.4028 176.744 63.766 176.861 64.0736C176.979 64.3759 177.133 64.6278 177.325 64.8293C177.517 65.0255 177.742 65.174 178.003 65.2747C178.27 65.3702 178.563 65.4179 178.882 65.4179C179.202 65.4179 179.477 65.3808 179.706 65.3066C179.94 65.2323 180.143 65.1501 180.313 65.06C180.489 64.9698 180.64 64.8876 180.768 64.8134C180.901 64.7391 181.029 64.702 181.152 64.702C181.317 64.702 181.439 64.763 181.519 64.885L182.087 65.6009C181.869 65.8554 181.624 66.0702 181.352 66.2452C181.08 66.4149 180.795 66.5528 180.497 66.6588C180.204 66.7596 179.903 66.8312 179.594 66.8736C179.29 66.916 178.994 66.9372 178.707 66.9372C178.137 66.9372 177.607 66.8444 177.117 66.6588C176.627 66.4679 176.201 66.1895 175.839 65.8236C175.476 65.4524 175.191 64.9963 174.983 64.4554C174.775 63.9092 174.672 63.2782 174.672 62.5622C174.672 62.0054 174.762 61.4831 174.944 60.9952C175.125 60.502 175.383 60.0751 175.718 59.7145C176.059 59.3486 176.472 59.0596 176.957 58.8475C177.447 58.6354 177.998 58.5293 178.611 58.5293C179.127 58.5293 179.605 58.6115 180.042 58.7759C180.478 58.9403 180.853 59.1816 181.168 59.4997C181.482 59.8126 181.727 60.1997 181.903 60.6611C182.084 61.1172 182.175 61.6395 182.175 62.2282C182.175 62.5251 182.143 62.7266 182.079 62.8327C182.015 62.9335 181.892 62.9838 181.711 62.9838H176.638Z" fill="#585858"/>
<path d="M193.537 66.8186H191.562V60.1289H187.759V64.5516C187.759 64.8061 187.821 65.005 187.943 65.1482C188.071 65.2914 188.244 65.363 188.462 65.363C188.584 65.363 188.686 65.3497 188.766 65.3232C188.851 65.2914 188.923 65.2595 188.982 65.2277C189.046 65.1959 189.101 65.1667 189.149 65.1402C189.197 65.1084 189.245 65.0925 189.293 65.0925C189.352 65.0925 189.4 65.1084 189.437 65.1402C189.474 65.1667 189.515 65.2092 189.557 65.2675L190.148 66.222C189.861 66.4607 189.531 66.641 189.158 66.763C188.785 66.8849 188.398 66.9459 187.998 66.9459C187.285 66.9459 186.736 66.747 186.352 66.3493C185.974 65.9463 185.786 65.3921 185.786 64.6868V60.1289H184.946C184.84 60.1289 184.749 60.0944 184.674 60.0255C184.6 59.9565 184.562 59.8531 184.562 59.7152V58.9357L185.881 58.713L186.297 56.4936C186.324 56.3876 186.374 56.3054 186.448 56.2471C186.523 56.1887 186.619 56.1596 186.736 56.1596H187.759V58.7289H193.537V66.8186ZM193.88 56.2471C193.88 56.4168 193.845 56.5785 193.776 56.7323C193.707 56.8808 193.613 57.0107 193.496 57.1221C193.384 57.2334 193.249 57.3236 193.089 57.3925C192.935 57.4561 192.769 57.488 192.594 57.488C192.423 57.488 192.263 57.4561 192.114 57.3925C191.965 57.3236 191.834 57.2334 191.722 57.1221C191.61 57.0107 191.52 56.8808 191.45 56.7323C191.387 56.5785 191.355 56.4168 191.355 56.2471C191.355 56.0721 191.387 55.9103 191.45 55.7618C191.52 55.608 191.61 55.4755 191.722 55.3641C191.834 55.2474 191.965 55.1573 192.114 55.0936C192.263 55.0247 192.423 54.9902 192.594 54.9902C192.769 54.9902 192.935 55.0247 193.089 55.0936C193.249 55.1573 193.384 55.2474 193.496 55.3641C193.613 55.4755 193.707 55.608 193.776 55.7618C193.845 55.9103 193.88 56.0721 193.88 56.2471Z" fill="#585858"/>
<path d="M203.125 60.3827C203.067 60.4569 203.008 60.5153 202.949 60.5577C202.896 60.6001 202.816 60.6213 202.71 60.6213C202.608 60.6213 202.51 60.5922 202.414 60.5338C202.319 60.4702 202.204 60.4013 202.07 60.327C201.937 60.2475 201.777 60.1785 201.591 60.1202C201.41 60.0566 201.184 60.0248 200.912 60.0248C200.566 60.0248 200.262 60.0884 200.001 60.2157C199.74 60.3376 199.522 60.5153 199.346 60.7486C199.176 60.9819 199.048 61.2657 198.963 61.5998C198.877 61.9285 198.835 62.3024 198.835 62.7213C198.835 63.1562 198.879 63.5433 198.97 63.8827C199.066 64.2221 199.202 64.5085 199.378 64.7418C199.554 64.9698 199.767 65.1448 200.017 65.2668C200.268 65.3835 200.55 65.4418 200.864 65.4418C201.179 65.4418 201.431 65.4047 201.623 65.3304C201.82 65.2509 201.985 65.166 202.118 65.0759C202.251 64.9804 202.367 64.8956 202.462 64.8213C202.564 64.7418 202.676 64.702 202.798 64.702C202.958 64.702 203.077 64.763 203.157 64.885L203.725 65.6009C203.507 65.8554 203.269 66.0702 203.013 66.2452C202.758 66.4149 202.491 66.5528 202.214 66.6588C201.943 66.7596 201.66 66.8312 201.367 66.8736C201.08 66.916 200.792 66.9372 200.504 66.9372C199.998 66.9372 199.522 66.8444 199.074 66.6588C198.627 66.4679 198.235 66.1922 197.899 65.8316C197.564 65.471 197.297 65.0308 197.1 64.5111C196.908 63.9861 196.812 63.3895 196.812 62.7213C196.812 62.1221 196.898 61.5679 197.068 61.0588C197.244 60.5444 197.5 60.1016 197.835 59.7304C198.171 59.3539 198.586 59.0596 199.082 58.8475C199.577 58.6354 200.147 58.5293 200.792 58.5293C201.404 58.5293 201.94 58.6274 202.399 58.8236C202.862 59.0198 203.277 59.3009 203.645 59.6668L203.125 60.3827Z" fill="#585858"/>
<path d="M211.655 60.2475C211.602 60.3323 211.547 60.3933 211.488 60.4304C211.429 60.4622 211.355 60.4782 211.264 60.4782C211.168 60.4782 211.064 60.4516 210.952 60.3986C210.846 60.3456 210.721 60.2873 210.577 60.2236C210.433 60.1547 210.268 60.0937 210.082 60.0407C209.901 59.9876 209.684 59.9611 209.434 59.9611C209.045 59.9611 208.739 60.0433 208.515 60.2077C208.297 60.3721 208.187 60.5869 208.187 60.852C208.187 61.027 208.244 61.1755 208.356 61.2975C208.473 61.4141 208.624 61.5176 208.811 61.6077C209.002 61.6979 209.219 61.7801 209.458 61.8543C209.698 61.9232 209.94 62.0001 210.185 62.085C210.435 62.1698 210.68 62.2679 210.92 62.3793C211.16 62.4854 211.373 62.6232 211.559 62.7929C211.751 62.9573 211.904 63.1562 212.015 63.3895C212.133 63.6229 212.191 63.9039 212.191 64.2327C212.191 64.6251 212.119 64.9884 211.975 65.3225C211.836 65.6513 211.629 65.9376 211.352 66.1816C211.075 66.4202 210.732 66.6085 210.321 66.7463C209.916 66.8789 209.448 66.9452 208.915 66.9452C208.633 66.9452 208.356 66.9187 208.084 66.8657C207.818 66.8179 207.559 66.749 207.308 66.6588C207.063 66.5687 206.834 66.4626 206.621 66.3407C206.413 66.2187 206.23 66.0861 206.07 65.9429L206.525 65.1952C206.584 65.1051 206.653 65.0361 206.733 64.9884C206.813 64.9407 206.914 64.9168 207.037 64.9168C207.159 64.9168 207.274 64.9513 207.381 65.0202C207.493 65.0891 207.62 65.1634 207.764 65.2429C207.908 65.3225 208.075 65.3967 208.267 65.4657C208.464 65.5346 208.713 65.5691 209.011 65.5691C209.245 65.5691 209.445 65.5426 209.61 65.4895C209.78 65.4312 209.919 65.3569 210.025 65.2668C210.137 65.1766 210.217 65.0732 210.265 64.9566C210.318 64.8346 210.345 64.71 210.345 64.5827C210.345 64.3918 210.286 64.2354 210.169 64.1134C210.057 63.9914 209.906 63.8854 209.714 63.7952C209.528 63.7051 209.311 63.6255 209.066 63.5566C208.827 63.4823 208.579 63.4028 208.324 63.3179C208.073 63.2331 207.825 63.135 207.58 63.0236C207.34 62.9069 207.125 62.7611 206.933 62.5861C206.747 62.4111 206.595 62.1963 206.477 61.9418C206.365 61.6872 206.31 61.3797 206.31 61.0191C206.31 60.685 206.376 60.3668 206.509 60.0645C206.642 59.7622 206.837 59.4997 207.093 59.277C207.354 59.049 207.676 58.8687 208.059 58.7361C208.448 58.5982 208.896 58.5293 209.402 58.5293C209.967 58.5293 210.481 58.6221 210.945 58.8077C211.408 58.9933 211.794 59.2373 212.103 59.5395L211.655 60.2475Z" fill="#585858"/>
<path d="M75.2147 21.3838C75.2627 21.4457 75.3322 21.4875 75.4095 21.5009C75.5933 21.5448 75.7771 21.5102 75.9609 21.5064H76.0013L76.7861 21.5009C77.2383 21.5165 78.8427 21.5385 79.702 21.5695C81.5254 21.7625 83.3602 21.8267 85.1927 21.7617C85.7441 21.7351 86.1953 21.7699 86.7274 21.79C86.4104 21.8276 86.0925 21.8642 85.7736 21.8953C86.1779 21.8842 86.5822 21.8668 86.9866 21.8431C87.0684 21.8834 87.1511 21.9227 87.2356 21.9584C87.5554 22.1276 87.9533 22.488 88.4431 22.6902C89.1635 23.0031 89.8528 23.3836 90.5934 23.6526C91.3286 23.97 92.0279 24.3616 92.7558 24.6937C94.0028 25.3221 95.2185 26.0439 96.5767 26.4107C97.0482 26.5443 97.5307 26.6312 98.0122 26.72C98.5351 26.8169 99.0635 26.9029 99.5974 26.8792C99.7655 26.8792 100.162 26.7364 100.042 26.5562C99.3217 25.8953 98.5367 25.3079 97.6988 24.8025C96.474 24.1479 95.2165 23.5558 93.9311 23.0287C93.0489 22.5942 92.1465 22.1807 91.1843 21.9538C90.8452 21.8687 90.4492 21.7992 90.0697 21.7416C90.4323 21.6251 90.7947 21.5082 91.1567 21.3912C91.2588 21.3802 91.3607 21.3683 91.4619 21.3537C92.2081 21.2531 92.9597 21.1862 93.6968 21.0308C94.3115 20.9073 95.18 20.7014 95.678 20.6374C96.0533 20.6147 96.4299 20.6306 96.802 20.685C97.2486 20.7701 97.6859 20.8963 98.1417 20.9366C98.3384 20.9594 98.547 20.9841 98.7612 21.0116C98.8872 21.0826 99.0051 21.1669 99.1131 21.2631C99.5726 21.8742 99.9191 22.5786 100.501 23.0927C101.133 23.6983 101.94 24.0743 102.687 24.518C103.422 24.9223 104.117 25.3899 104.892 25.7073C105.93 26.1601 107.061 26.365 108.189 26.398C108.801 26.4079 109.418 26.4354 110.027 26.354C110.23 26.3119 110.612 26.1711 110.487 25.913C110.358 25.7987 110.128 25.6496 109.844 25.4502C109.317 25.0724 108.797 24.6826 108.251 24.3286C107.707 23.9746 107.092 23.6974 106.514 23.3754C105.293 22.6253 104.115 21.7626 102.756 21.2713C101.423 20.7608 99.999 20.6045 98.5921 20.4425C98.223 20.3932 97.857 20.3237 97.4958 20.2339C97.1282 20.179 96.7573 20.1499 96.3857 20.1471C96.1589 20.146 95.9324 20.16 95.7075 20.1892C95.9384 20.0635 96.1719 19.9415 96.4078 19.8233C97.3211 19.4765 98.2226 19.0913 99.1103 18.6898C99.4687 18.5644 99.8299 18.4446 100.193 18.334C100.899 18.1052 101.677 17.8628 102.246 17.8024C102.896 17.7164 103.464 17.7768 104.168 17.7915C105.212 17.7915 106.684 17.9543 107.486 18.0832C108.211 18.165 108.927 18.3099 109.626 18.516C109.871 18.5901 110.107 18.688 110.347 18.7767C110.284 18.8454 110.245 18.9328 110.235 19.0257C110.226 19.1185 110.248 19.2119 110.296 19.2917C110.269 19.6275 110.414 19.9696 110.755 20.1087C111.293 20.298 112.042 20.0684 112.24 19.5012C112.307 19.2944 112.363 19.0347 112.249 18.8362C112.034 18.5049 111.605 18.3668 111.221 18.3897C110.917 18.4026 110.628 18.52 110.402 18.7218C110.239 18.6376 110.078 18.548 109.916 18.462C109.556 18.3108 109.189 18.1799 108.814 18.0695C107.933 17.8326 107.027 17.6807 106.127 17.5316C105.679 17.4768 105.227 17.4521 104.777 17.4255C104.053 17.3953 103.325 17.334 102.602 17.3999C103.661 17.0285 104.725 16.6772 105.805 16.3698C107.138 15.9563 108.516 15.5465 110.135 15.4788C111.069 15.4193 112.005 15.4788 112.94 15.5273C113.469 15.5583 114.006 15.5126 114.53 15.6078C115.173 15.8063 115.799 16.0652 116.431 16.2921C116.722 16.464 117.013 16.6354 117.305 16.8062C117.764 17.0632 118.224 17.3038 118.683 17.5591C118.499 17.4905 118.315 17.4246 118.124 17.3651L117.736 17.2407C118.46 17.582 119.191 17.9479 119.791 18.4857C120.169 18.8763 120.278 19.4097 120.559 19.9495C120.864 20.6712 121.273 21.3418 121.667 22.0179C121.829 22.3023 122.011 22.574 122.2 22.8411C122.33 23.0548 122.488 23.25 122.671 23.4212C123.064 23.756 123.563 23.9142 124.028 24.1265C125.009 24.5839 126.126 24.475 127.159 24.2865C127.765 24.1612 128.415 24.0542 128.877 23.6105C128.938 23.573 128.998 23.4852 128.94 23.422C127.762 22.0773 126.315 21.0005 124.896 19.9275C124.488 19.622 123.717 19.0612 123.477 18.8837C122.972 18.4976 122.445 18.1382 121.851 17.8985C120.288 17.2068 118.701 16.5866 117.09 16.0222L115.735 15.5282C115.459 15.4248 115.183 15.2949 114.884 15.2537C114.333 15.1623 113.768 15.1989 113.209 15.1687C112.253 15.1202 111.296 15.0653 110.339 15.1202C109.034 15.1659 107.757 15.4477 106.504 15.8026C104.942 16.2765 103.373 16.7302 101.842 17.3057C102.261 17.0806 102.678 16.8483 103.094 16.6204C102.849 16.7803 102.607 16.9416 102.367 17.1044C103.17 16.6446 103.985 16.2067 104.813 15.7907C105.39 15.5279 105.972 15.2773 106.558 15.0388C106.796 14.9592 107.047 14.8805 107.335 14.7945C107.696 14.6738 108.009 14.5832 108.315 14.5009C108.232 14.5344 108.152 14.5701 108.072 14.6079C106.602 15.2199 105.152 15.8612 103.736 16.5848C105.504 15.8237 107.213 15.1732 109.039 14.4808C109.962 14.2063 110.882 13.909 111.801 13.619C112.249 13.5229 112.705 13.425 113.121 13.3253C113.223 13.2988 113.339 13.265 113.454 13.2293C114.091 13.158 114.732 13.1003 115.375 13.0463L116.78 12.9814C117.209 12.9741 117.636 12.9438 118.067 12.911C118.166 12.911 118.265 12.9173 118.364 12.9238C119.435 12.986 120.478 13.2339 121.523 13.4662C122.965 13.7589 124.425 14.0152 125.816 14.5082C126.535 14.7872 127.182 15.2199 127.898 15.5045C129.064 15.9454 130.248 16.3542 131.361 16.9196C132.662 17.6057 133.884 18.4327 135.118 19.2295C135.982 19.7966 136.834 20.3858 137.753 20.8624C138.947 21.489 140.208 21.972 141.458 22.4724C142.15 22.7331 142.856 22.954 143.572 23.1339C144.244 23.3169 144.928 23.4669 145.628 23.4714C146.15 23.4787 146.67 23.5474 147.19 23.5163C148.136 23.4248 149.037 23.1019 149.92 22.7698C150.038 22.7419 150.15 22.695 150.253 22.6308C150.275 22.6186 150.294 22.6017 150.308 22.5815C150.321 22.5612 150.331 22.538 150.335 22.5137C150.343 22.3984 150.166 22.3783 150.079 22.381C149.956 22.3891 149.836 22.4143 149.721 22.456C149.559 22.4692 149.397 22.4548 149.239 22.4139C148.801 22.274 148.412 22.006 148.027 21.7671C147.003 21.1387 145.848 20.7801 144.685 20.5011C144.084 20.4032 143.468 20.4206 142.859 20.4096C142.105 20.4196 141.354 20.513 140.599 20.5505C140.156 20.5569 139.713 20.5185 139.27 20.5038C138.899 20.508 138.529 20.4733 138.167 20.4004C137.719 20.1602 137.283 19.897 136.861 19.6119C135.422 18.6752 133.999 17.7054 132.509 16.8492C131.303 16.1795 129.997 15.7167 128.704 15.2401C128.512 15.1705 128.326 15.0891 128.142 15.0031C128.727 15.1623 129.323 15.283 129.911 15.4367C131.169 15.6618 132.494 15.8255 133.811 15.9362C134.354 15.9655 134.899 15.9948 135.444 15.9938C135.836 15.9774 136.229 15.9436 136.622 15.938C136.622 15.9463 136.622 15.9545 136.622 15.9628C136.622 15.9709 136.622 15.9728 136.622 15.9782C136.617 16.019 136.617 16.0601 136.622 16.1008C136.652 16.1816 136.693 16.2583 136.741 16.3296C136.827 16.4193 136.944 16.4733 137.068 16.4805C137.145 16.4979 137.224 16.5056 137.303 16.5033L137.329 16.5089C137.569 16.5338 137.811 16.4749 138.014 16.3423C138.422 16.1887 138.851 15.8502 138.823 15.3773C138.664 14.5942 137.567 14.6573 137.039 15.0168C136.906 15.1208 136.795 15.2498 136.712 15.3965C136.694 15.4145 136.68 15.4365 136.671 15.4606C136.663 15.4846 136.661 15.5103 136.664 15.5355C136.168 15.5529 135.735 15.6032 135.415 15.5941C133.728 15.5603 131.981 15.37 130.337 15.2062C129.648 15.0726 128.951 14.9775 128.264 14.8338C127.975 14.7644 127.687 14.6976 127.397 14.6307C127.059 14.4499 126.711 14.2901 126.354 14.1523C126.691 14.2209 127.03 14.2868 127.37 14.3426C128.404 14.5141 129.448 14.6135 130.495 14.64C131.567 14.7134 132.644 14.6534 133.701 14.4616C135.349 14.208 136.959 13.7468 138.49 13.0894C140.059 12.4581 141.574 11.6851 142.933 10.6733C143.356 10.3742 143.745 10.033 144.158 9.71828C144.433 9.5033 146.141 8.41011 145.058 8.49884C144.776 8.54367 144.521 8.68638 144.271 8.81537C144.031 8.90921 143.785 8.98775 143.536 9.05047C143.12 9.17763 142.688 9.11633 142.26 9.14195C141.599 9.15435 140.939 9.2155 140.286 9.32491C139.392 9.43469 138.517 9.77499 137.875 10.4181C137.334 10.9047 136.831 11.4298 136.293 11.9183C135.939 12.2935 135.53 12.717 135.292 12.8926C134.539 13.373 134.027 13.5458 133.283 13.8386C132.667 14.113 131.997 14.1825 131.334 14.2292C131.077 14.2502 130.821 14.2694 130.564 14.2886L130.365 14.2822C128.648 14.2393 126.965 13.8833 125.287 13.5403C124.406 13.3915 123.525 13.2421 122.643 13.0921C122.032 12.9933 121.418 12.9037 120.816 12.76C120.556 12.6987 120.316 12.567 120.05 12.5332C119.646 12.4881 119.238 12.4912 118.834 12.5423L118.65 12.5597H118.579C117.552 12.5259 116.527 12.6118 115.503 12.6978C116.358 12.5002 117.356 12.2935 117.883 12.2304C118.503 12.1279 118.776 12.1535 119.473 12.0327C120.151 11.8736 120.882 11.7061 121.506 11.4015C122.348 10.9542 123.136 10.5782 123.896 10.0494C123.943 10.0775 123.992 10.1026 124.043 10.1245C124.215 10.3257 124.585 10.3284 124.818 10.2516C124.974 10.1964 125.114 10.1018 125.221 9.97716C125.38 9.86619 125.505 9.71395 125.581 9.53714C125.813 9.10902 125.537 8.8053 125.167 8.69095C124.663 8.49243 124.017 8.68089 123.733 9.14835C123.457 9.51427 123.566 9.82439 123.849 10.0183C123.242 10.3504 122.612 10.6404 121.986 10.9332C121.624 11.0886 121.274 11.2716 120.902 11.4015C120.35 11.5406 119.776 11.7152 119.222 11.7757C118.094 11.8373 116.974 11.9958 115.873 12.2496C115.246 12.4106 114.605 12.5121 113.972 12.6511C113.681 12.7261 113.458 12.8341 113.186 12.9191L113.16 12.9256C112.493 13.0061 111.826 13.0957 111.166 13.2201C110.046 13.4971 108.949 13.8542 107.881 14.2886C107.336 14.4597 106.779 14.6491 106.193 14.8823L106.575 14.671C108.904 13.3501 111.324 12.1645 113.493 10.5828C114.327 9.97076 115.074 9.2499 115.801 8.51622C116.386 7.92892 116.988 7.35076 117.477 6.67838C118.641 5.0857 119.59 3.20761 119.519 1.18955C119.519 0.886749 119.504 0.583948 119.479 0.282063C119.465 0.196071 119.473 0.0798911 119.381 0.0387249C119.105 -0.0701369 118.815 0.0689132 118.591 0.22809L117.96 0.649815C117.195 1.14478 116.477 1.70688 115.815 2.3294C115.315 2.76484 114.828 3.22773 114.479 3.79309C113.936 4.62647 113.651 5.58519 113.399 6.5375C113.313 6.88696 113.209 7.23275 113.123 7.58312C113.057 7.91245 113.019 8.24818 112.934 8.57385C112.741 9.1328 112.625 9.71187 112.466 10.2791C112.315 10.5892 112.059 10.8371 111.817 11.0786C111.666 11.2195 111.507 11.353 111.345 11.4793L111.557 11.3375C111.973 11.0475 112.385 10.731 112.692 10.3221C112.794 10.1318 112.879 9.93356 112.949 9.72926C113.215 9.03583 113.557 8.37443 113.717 7.64441C114.177 6.3829 114.618 4.74631 115.239 3.78943C115.655 3.12528 116.218 2.65323 116.785 2.14277C117.385 1.61232 118.027 1.13167 118.705 0.705618C118.741 1.30052 118.725 1.89745 118.656 2.48949C118.473 3.55615 118.041 4.56518 117.498 5.49829C117.25 5.92424 116.977 6.33566 116.681 6.73052C116.208 7.36449 115.636 7.91429 115.081 8.47506C114.365 9.2069 113.627 9.91771 112.794 10.5151C110.517 12.1553 108.047 13.3437 105.591 14.7525C103.385 15.9572 101.223 17.259 98.9495 18.3394C96.8709 19.0868 94.7967 19.8461 92.7338 20.6356C92.205 20.7782 91.6736 20.9097 91.1394 21.0298C90.8958 21.0655 90.6624 21.0948 90.4041 21.1213C91.9002 20.6868 93.3982 20.2495 94.8152 19.6018C95.5145 19.2734 96.1412 18.815 96.8038 18.4226C97.1189 18.2287 97.4369 18.0375 97.7503 17.8409C97.6905 17.8856 97.8808 17.7723 97.9387 17.742C98.0504 17.6787 98.1531 17.6005 98.2438 17.5097C98.5305 17.2353 98.8301 16.9608 99.1113 16.679C99.8954 16.1246 100.659 15.5453 101.403 14.9409C102.157 14.2832 102.85 13.5586 103.538 12.8368C104.114 12.1873 104.343 11.3283 104.733 10.569C105.083 9.81342 105.453 9.06511 105.766 8.29301C105.885 8.00667 106.042 7.73132 106.1 7.42578C106.211 6.8769 105.965 6.34905 105.848 5.82304C105.724 5.38485 105.344 3.69428 104.866 3.71167C104.157 3.6641 104.039 4.37307 103.786 4.86432C103.586 5.24031 103.138 5.8514 102.796 6.36278C102.332 7.01594 101.872 7.67094 101.51 8.38449C101.234 8.86477 100.949 9.35419 100.806 9.89392C100.53 11.0831 100.163 12.2496 99.7949 13.4177C99.5368 14.1569 99.5009 14.961 99.1103 15.6499C99.0249 15.8447 98.6922 16.2244 98.3439 16.5884C97.6253 17.0935 96.914 17.6103 96.1632 18.0668C95.4069 18.5004 94.6139 18.8645 93.8337 19.256C93.0986 19.622 92.3688 19.9879 91.6282 20.3355C91.5125 20.3694 91.3957 20.4032 91.2799 20.4352C90.508 20.6792 89.732 20.9094 88.9522 21.1259C88.621 21.2222 88.2832 21.2938 87.9414 21.3399L87.6371 21.3638C87.5985 21.3638 87.56 21.3638 87.5242 21.3638C87.4414 21.3638 87.3523 21.3638 87.2604 21.3573H87.2448C87.0025 21.2253 86.7484 21.1162 86.4857 21.0317C85.6586 20.7883 84.7774 20.8085 83.9301 20.9402C84.3473 20.7161 84.7949 20.5505 85.224 20.3483C86.2817 19.8241 87.3275 19.2505 88.195 18.441C89.2352 17.5371 90.02 16.39 90.6669 15.1851C91.2109 14.1331 91.7173 13.0243 91.8965 11.8471C91.9554 11.3521 91.8763 10.8517 91.7577 10.3714C91.7247 10.2754 91.7311 10.1427 91.6301 10.0915C91.5821 10.0696 91.5303 10.0575 91.4775 10.0558C90.9932 10.0128 90.7249 10.4501 90.4556 10.7758C90.088 11.2049 89.7351 11.6521 89.3483 12.0657C88.1536 13.3418 86.9232 14.5942 85.8195 15.9527C85.2681 16.6297 84.9419 17.4503 84.6248 18.2543C84.5192 18.8096 84.418 19.3741 84.0735 19.8415C83.6806 20.4057 83.1652 20.8747 82.5654 21.2137C82.5382 21.2276 82.51 21.2392 82.4809 21.2485C82.0214 21.2384 81.562 21.2101 81.107 21.1854C79.3666 21.0628 77.615 20.8927 75.869 21.0234C75.665 21.0317 75.4518 21.05 75.2817 21.1716C75.2156 21.2101 75.1486 21.3088 75.2147 21.3838ZM101.832 21.6583C103.267 22.1542 104.488 23.0854 105.784 23.8539C106.32 24.1338 106.867 24.3872 107.378 24.7137C107.988 25.0998 108.572 25.5307 109.166 25.9387C108.678 25.942 108.189 25.9163 107.705 25.8618C106.93 25.7733 106.175 25.5604 105.47 25.2315C104.891 24.9846 104.362 24.6397 103.81 24.3405C103.111 23.9655 102.39 23.6288 101.696 23.2428C100.907 22.8073 100.226 21.9894 99.5322 21.2228C99.4755 21.1784 99.4166 21.1369 99.3557 21.0984C100.224 21.2183 101.133 21.3921 101.832 21.6546V21.6583ZM121.57 18.3504C122.134 18.6194 122.433 18.8736 122.882 19.1957C123.129 19.3887 123.919 19.9558 124.342 20.2751C125.636 21.2594 126.941 22.2529 128.042 23.454C128.082 23.4943 128.119 23.5364 128.155 23.5804C128.1 23.6288 128.038 23.6706 127.972 23.7048C127.825 23.7589 127.673 23.799 127.518 23.8246C127.119 23.9102 126.714 23.9668 126.306 23.9938C125.546 24.0222 125.17 23.9133 124.609 23.6205C124.319 23.4787 124.014 23.358 123.753 23.1632C123.577 23.058 123 22.188 122.727 21.7772C122.383 21.2622 122.028 20.7527 121.669 20.2486C121.33 19.7153 121.009 19.1682 120.627 18.6651C120.392 18.354 120.036 18.1683 119.693 17.9991C119.485 17.8957 119.272 17.8015 119.058 17.7137C118.602 17.3581 118.125 17.0303 117.63 16.7321C118.963 17.2206 120.276 17.7588 121.57 18.3467V18.3504ZM139.731 20.8359C140.706 20.9558 142.176 20.781 142.638 20.8112C143.136 20.8213 143.637 20.8322 144.133 20.8716C144.961 21.0747 145.797 21.2741 146.568 21.6446C147.348 21.9602 148.03 22.5877 148.846 22.7808C148.378 22.9502 147.894 23.0709 147.401 23.1413C147.06 23.1751 146.718 23.1284 146.377 23.1138C145.683 23.1028 144.992 23.0479 144.325 22.8448C143.514 22.6488 142.718 22.3987 141.941 22.0965C140.876 21.6712 139.807 21.2439 138.781 20.7362C139.097 20.7728 139.415 20.7984 139.731 20.8359ZM133.855 13.9905C134.564 13.7785 135.244 13.4789 135.876 13.0985C136.324 12.7838 136.694 12.3667 137.072 11.9751C137.602 11.4884 138.098 10.9642 138.634 10.4776C138.787 10.3138 139.298 9.92868 139.752 9.82074C140.688 9.61764 141.644 9.52188 142.601 9.53532C143.048 9.53456 143.491 9.47049 143.919 9.34503C143.803 9.42828 143.686 9.5097 143.571 9.59386C143.236 9.84635 142.921 10.1208 142.588 10.3742C141.138 11.4957 139.493 12.3246 137.789 12.9933C136.279 13.6081 134.695 14.0242 133.075 14.231C133.334 14.1615 133.596 14.0783 133.855 13.9905ZM95.7883 20.0574C95.7056 20.1095 95.6229 20.1607 95.5411 20.2147C95.4088 20.2349 95.2765 20.2568 95.1442 20.2824C95.3601 20.2102 95.5742 20.1342 95.7883 20.0574ZM100.405 14.2759C100.512 13.8184 100.652 13.3675 100.788 12.9165C100.96 12.3438 101.142 11.7729 101.306 11.1976C101.497 10.5004 101.587 9.76767 101.906 9.11268C102.158 8.59947 102.565 7.87586 102.744 7.56574C103.352 6.62898 104.17 5.56689 104.621 4.76826C104.869 5.45254 104.989 6.18256 105.184 6.8833C105.336 7.42395 105.109 7.81823 104.861 8.38084C104.622 8.96722 104.34 9.53532 104.072 10.1098C103.674 10.8837 103.284 11.966 102.926 12.503C102.466 13.1003 101.895 13.6007 101.376 14.1495C100.986 14.5394 100.573 14.906 100.14 15.2474C100.261 14.9334 100.35 14.6079 100.405 14.2759ZM90.5797 21.4488L90.6715 21.4424C90.4327 21.5339 90.1937 21.6336 89.9557 21.7287C89.714 21.694 89.4778 21.6647 89.2619 21.6373C89.7011 21.5814 90.1413 21.5193 90.5797 21.4488ZM90.5466 22.2914C91.5437 22.4999 92.4598 22.9536 93.3733 23.3891C94.2573 23.7487 95.1257 24.1447 95.9731 24.5839C96.518 24.8482 97.0675 25.1071 97.5647 25.4548C97.9746 25.7366 98.3789 26.0366 98.8282 26.4034L98.5911 26.3595C97.6603 26.1921 96.8497 25.9935 96.144 25.6917C95.3169 25.3459 94.5422 24.8839 93.7363 24.4906C93.2713 24.2417 92.787 24.0331 92.3165 23.7934C91.9792 23.6324 91.6567 23.4413 91.3057 23.3086C90.6099 23.0588 89.9612 22.7076 89.2839 22.4186C89.0243 22.3095 88.7743 22.1789 88.5369 22.0279L88.4495 21.9684C89.1526 22.0525 89.8565 22.1257 90.5429 22.2886L90.5466 22.2914ZM82.7621 21.1295C83.6084 20.7143 84.3896 20.0976 84.8609 19.2715C85.0622 18.9422 85.1367 18.5617 85.2662 18.2022C85.5273 17.6533 85.9206 16.9141 86.1402 16.5711C86.4099 16.1837 86.7058 15.815 87.0261 15.4678C88.3374 13.9199 89.7967 12.502 91.0842 10.935C91.2145 11.6083 91.1573 12.3042 90.9188 12.9476C90.6325 13.8555 90.2541 14.7322 89.7894 15.5639C88.9899 17.1026 87.4727 18.8498 85.5934 19.7665C84.7131 20.2742 83.7095 20.5523 82.8779 21.1387C82.8439 21.1854 82.8411 21.221 82.8558 21.2485C82.7336 21.2485 82.6114 21.2485 82.4882 21.2485C82.5841 21.2192 82.6762 21.1783 82.7621 21.1268V21.1295Z" fill="#585858"/>
<path d="M130.119 18.3903C129.384 17.62 128.489 17.0327 127.621 16.4226C126.043 15.2699 124.1 14.849 122.26 14.2947C121.467 14.0358 120.685 13.7458 119.881 13.5235C117.88 13.0158 115.801 13.1091 113.758 13.2207C115.432 13.2518 117.122 13.2381 118.763 13.6131C119.866 13.8445 120.784 14.2599 121.832 14.5984C122.187 14.709 122.549 14.8142 122.91 14.9195C122.952 14.9424 122.994 14.9652 123.034 14.9899C123.403 15.1536 123.619 15.7145 123.759 15.9514C123.951 16.3429 124.137 16.7454 124.402 17.0903C124.739 17.4325 125.168 17.6722 125.588 17.8999C126.115 18.1701 126.681 18.3504 127.266 18.4332C127.76 18.5037 128.245 18.4588 128.633 18.4845C128.937 18.5201 129.015 18.5503 129.352 18.7342C129.481 18.8019 129.596 18.9107 129.747 18.9254C129.954 18.9492 130.227 18.8989 130.342 18.7095C130.347 18.6939 130.349 18.6772 130.345 18.6612C130.342 18.6451 130.335 18.6302 130.323 18.618C130.262 18.5358 130.194 18.4596 130.119 18.3903ZM128.577 18.0527C128.167 18.0573 127.624 18.0527 127.146 17.9127C126.384 17.7172 125.664 17.3876 125.02 16.9394C124.445 16.3959 124.119 15.634 123.528 15.1052C124.686 15.4564 125.825 15.8627 126.824 16.5597C127.571 17.0812 128.124 17.4681 128.845 18.0573C128.75 18.0509 128.663 18.0509 128.577 18.0527Z" fill="#585858"/>
</svg>
