<svg aria-hidden="true" style="position: absolute; width: 0; height: 0; overflow: hidden;" version="1.1" xmlns="http://www.w3.org/2000/svg" xmlns:xlink="http://www.w3.org/1999/xlink">
<defs>
<symbol id="icon-header-search" viewBox="0 0 32 32">
<path  d="M14.363 0c-7.915 0-14.363 6.445-14.363 14.358s6.448 14.371 14.363 14.371c3.381 0 6.49-1.184 8.948-3.151l5.983 5.977c0.302 0.289 0.705 0.449 1.123 0.445s0.818-0.172 1.114-0.467 0.464-0.695 0.469-1.113c0.005-0.418-0.154-0.821-0.443-1.124l-5.983-5.981c1.969-2.46 3.155-5.573 3.155-8.957 0-7.913-6.451-14.358-14.366-14.358zM14.363 3.191c6.19 0 11.171 4.979 11.171 11.167s-4.981 11.179-11.171 11.179c-6.19 0-11.17-4.991-11.17-11.179s4.981-11.167 11.17-11.167z"></path>
</symbol>
<symbol id="icon-header-like" viewBox="0 0 32 32">
<path  d="M22.75 2c-1.266 0.001-2.517 0.262-3.678 0.766s-2.206 1.24-3.072 2.164c-1.268-1.353-2.914-2.294-4.723-2.701s-3.7-0.259-5.425 0.422-3.205 1.866-4.249 3.399c-1.044 1.533-1.602 3.345-1.603 5.2 0 9.21 14.855 18.25 15.5 18.605 0.156 0.094 0.334 0.143 0.515 0.143s0.36-0.049 0.515-0.143c0.615-0.355 15.47-9.395 15.47-18.605-0.003-2.452-0.978-4.804-2.712-6.538s-4.085-2.71-6.538-2.712zM16 27.82c-2.585-1.65-14-9.36-14-16.57 0.001-1.54 0.493-3.040 1.404-4.281s2.193-2.161 3.662-2.626c1.468-0.464 3.047-0.448 4.505 0.045s2.723 1.438 3.609 2.697c0.092 0.131 0.215 0.238 0.357 0.312s0.3 0.112 0.46 0.112c0.16 0 0.318-0.039 0.461-0.112s0.265-0.181 0.357-0.312c0.885-1.262 2.15-2.209 3.61-2.703s3.039-0.511 4.509-0.046c1.47 0.464 2.753 1.385 3.664 2.628s1.402 2.745 1.402 4.286c0 7.205-11.415 14.915-14 16.57z"></path>
</symbol>

<symbol id="icon-hero-but" viewBox="0 0 32 32">
<path fill="#fff" style="fill: var(--color1, #fff)" opacity="0.55" d="M31.859 15.971c0 8.775-7.114 15.888-15.888 15.888s-15.888-7.114-15.888-15.888c0-8.775 7.114-15.888 15.888-15.888s15.888 7.114 15.888 15.888z"></path>
<path fill="#009dbb" style="fill: var(--color2, #009dbb)" d="M28.937 16.291l1.432 0.099-0.033 0.479c-0.016 0.238-0.090 0.422-0.22 0.554-0.129 0.132-0.313 0.19-0.554 0.173-0.233-0.016-0.406-0.099-0.518-0.25-0.11-0.15-0.157-0.343-0.141-0.579l0.033-0.477zM29.108 16.51l-0.018 0.266c-0.013 0.182 0.022 0.324 0.104 0.428 0.082 0.105 0.209 0.163 0.381 0.175 0.176 0.012 0.313-0.027 0.412-0.118 0.098-0.090 0.154-0.229 0.167-0.418l0.018-0.26-1.063-0.074z"></path>
<path fill="#009dbb" style="fill: var(--color2, #009dbb)" d="M28.738 18.2l1.414 0.247-0.036 0.204-1.414-0.247 0.036-0.203z"></path>
<path fill="#009dbb" style="fill: var(--color2, #009dbb)" d="M28.793 19.053l0.089 0.177c-0.157 0.075-0.255 0.181-0.294 0.317-0.026 0.091-0.025 0.168 0.002 0.231s0.076 0.104 0.146 0.124c0.072 0.020 0.135 0.008 0.189-0.036 0.055-0.043 0.112-0.118 0.169-0.227 0.061-0.116 0.135-0.2 0.221-0.253 0.086-0.052 0.183-0.062 0.289-0.032 0.108 0.031 0.186 0.096 0.235 0.196 0.050 0.102 0.054 0.226 0.013 0.373-0.052 0.182-0.157 0.308-0.315 0.376l-0.085-0.167c0.116-0.057 0.191-0.146 0.226-0.267 0.023-0.082 0.021-0.15-0.007-0.205-0.026-0.054-0.066-0.088-0.118-0.103-0.064-0.018-0.12-0.006-0.169 0.035-0.048 0.043-0.102 0.118-0.162 0.225-0.030 0.053-0.061 0.098-0.093 0.137s-0.070 0.074-0.115 0.106c-0.045 0.032-0.096 0.052-0.153 0.059s-0.12 0.002-0.187-0.017c-0.119-0.034-0.203-0.108-0.254-0.224-0.050-0.114-0.055-0.24-0.016-0.378 0.033-0.116 0.086-0.213 0.16-0.29 0.074-0.076 0.15-0.128 0.228-0.157z"></path>
<path fill="#009dbb" style="fill: var(--color2, #009dbb)" d="M27.936 21.871l-0.169 0.082c-0.045-0.064-0.074-0.156-0.088-0.274-0.015-0.117 0.005-0.236 0.060-0.356 0.087-0.191 0.222-0.318 0.405-0.383 0.183-0.063 0.373-0.050 0.571 0.039 0.195 0.088 0.33 0.224 0.406 0.407 0.078 0.183 0.073 0.371-0.015 0.563-0.056 0.124-0.13 0.216-0.22 0.276-0.089 0.061-0.179 0.098-0.269 0.114l-0.053-0.185c0.18-0.035 0.304-0.128 0.373-0.28 0.063-0.14 0.064-0.274 0.003-0.403s-0.165-0.226-0.311-0.293c-0.145-0.066-0.285-0.079-0.419-0.039s-0.233 0.128-0.295 0.263c-0.015 0.033-0.027 0.064-0.036 0.095-0.008 0.031-0.012 0.061-0.012 0.089s0 0.053 0.002 0.074c0.001 0.021 0.006 0.044 0.014 0.068 0.007 0.025 0.013 0.044 0.018 0.055 0.004 0.013 0.010 0.029 0.020 0.049 0.009 0.021 0.014 0.034 0.016 0.038z"></path>
<path fill="#009dbb" style="fill: var(--color2, #009dbb)" d="M26.679 23.204c0.114-0.171 0.271-0.274 0.472-0.311 0.2-0.036 0.387 0.005 0.563 0.122 0.174 0.116 0.283 0.274 0.327 0.472s0.008 0.383-0.107 0.555c-0.115 0.172-0.272 0.276-0.472 0.311-0.201 0.037-0.388-0.003-0.562-0.119-0.175-0.117-0.285-0.275-0.327-0.475-0.044-0.198-0.008-0.383 0.107-0.555zM27.184 23.091c-0.144 0.019-0.259 0.093-0.344 0.221s-0.109 0.262-0.072 0.402c0.039 0.141 0.123 0.255 0.253 0.342 0.132 0.088 0.27 0.122 0.413 0.102 0.143-0.018 0.258-0.092 0.344-0.221 0.085-0.128 0.109-0.262 0.072-0.402-0.037-0.139-0.122-0.252-0.254-0.34-0.13-0.087-0.267-0.121-0.412-0.104z"></path>
<path fill="#009dbb" style="fill: var(--color2, #009dbb)" d="M25.501 24.748l1.427 0.576-0.157 0.168-1.16-0.487 0.562 1.125-0.149 0.159-0.668-1.387 0.144-0.154z"></path>
<path fill="#009dbb" style="fill: var(--color2, #009dbb)" d="M24.483 25.744l0.907 1.113-0.701 0.571-0.116-0.142 0.541-0.44-0.264-0.324-0.407 0.332-0.117-0.144 0.407-0.332-0.294-0.361-0.581 0.473-0.117-0.144 0.741-0.604z"></path>
<path fill="#009dbb" style="fill: var(--color2, #009dbb)" d="M23.148 26.761l0.757 1.22-0.39 0.242c-0.144 0.089-0.272 0.12-0.386 0.093-0.113-0.026-0.2-0.089-0.261-0.188-0.105-0.169-0.101-0.329 0.014-0.48l-0.609-0.344 0.198-0.122 0.571 0.337 0.245-0.152-0.31-0.499 0.17-0.106zM23.38 27.514l-0.234 0.145c-0.076 0.047-0.122 0.101-0.138 0.162-0.016 0.062-0.003 0.125 0.037 0.19 0.042 0.067 0.094 0.106 0.159 0.117 0.065 0.012 0.134-0.005 0.207-0.050l0.23-0.143-0.261-0.421z"></path>
<path fill="#009dbb" style="fill: var(--color2, #009dbb)" d="M19.841 28.338l0.365 1.388-0.464 0.122c-0.23 0.061-0.429 0.050-0.596-0.030-0.166-0.079-0.28-0.236-0.341-0.469-0.059-0.226-0.036-0.416 0.070-0.57 0.107-0.153 0.275-0.259 0.504-0.319l0.462-0.121zM19.688 28.57l-0.258 0.068c-0.176 0.046-0.3 0.125-0.372 0.236-0.073 0.111-0.088 0.25-0.044 0.417 0.045 0.171 0.126 0.288 0.244 0.352 0.116 0.064 0.266 0.072 0.449 0.024l0.252-0.066-0.271-1.030z"></path>
<path fill="#009dbb" style="fill: var(--color2, #009dbb)" d="M17.97 28.755l0.215 1.419-0.204 0.031-0.215-1.419 0.204-0.031z"></path>
<path fill="#009dbb" style="fill: var(--color2, #009dbb)" d="M17.163 29.079l-0.14 0.14c-0.121-0.125-0.252-0.184-0.394-0.178-0.095 0.004-0.167 0.029-0.218 0.075s-0.075 0.105-0.071 0.178c0.003 0.075 0.035 0.131 0.094 0.168 0.058 0.039 0.148 0.069 0.269 0.089 0.129 0.021 0.232 0.065 0.31 0.13 0.076 0.065 0.117 0.153 0.122 0.264 0.005 0.112-0.032 0.207-0.112 0.285-0.081 0.080-0.198 0.123-0.349 0.13-0.189 0.009-0.341-0.051-0.457-0.179l0.132-0.133c0.090 0.092 0.199 0.135 0.325 0.129 0.085-0.004 0.149-0.028 0.193-0.071 0.043-0.042 0.062-0.090 0.060-0.145-0.003-0.066-0.032-0.116-0.087-0.149-0.056-0.032-0.144-0.059-0.265-0.082-0.059-0.012-0.112-0.026-0.159-0.044s-0.093-0.043-0.137-0.076-0.080-0.075-0.105-0.126c-0.025-0.052-0.040-0.113-0.043-0.183-0.006-0.123 0.038-0.227 0.132-0.312 0.092-0.083 0.21-0.128 0.354-0.135 0.12-0.006 0.229 0.015 0.326 0.060 0.096 0.046 0.169 0.101 0.221 0.166z"></path>
<path fill="#009dbb" style="fill: var(--color2, #009dbb)" d="M14.030 29.145l-0.131-0.134c0.047-0.063 0.124-0.12 0.231-0.171 0.106-0.051 0.225-0.070 0.356-0.057 0.208 0.021 0.373 0.108 0.493 0.262 0.119 0.153 0.167 0.338 0.146 0.553-0.021 0.213-0.106 0.384-0.255 0.515-0.149 0.132-0.328 0.188-0.538 0.166-0.136-0.014-0.246-0.053-0.332-0.12-0.086-0.065-0.151-0.138-0.194-0.218l0.158-0.11c0.091 0.159 0.219 0.247 0.384 0.264 0.153 0.015 0.28-0.026 0.383-0.126s0.161-0.229 0.178-0.389c0.016-0.158-0.016-0.295-0.097-0.41s-0.195-0.18-0.344-0.195c-0.036-0.004-0.069-0.005-0.101-0.004-0.032 0.003-0.061 0.008-0.088 0.017s-0.050 0.017-0.070 0.025c-0.020 0.008-0.039 0.020-0.060 0.035-0.022 0.015-0.037 0.026-0.047 0.034-0.011 0.008-0.024 0.019-0.040 0.035-0.017 0.016-0.028 0.025-0.031 0.027z"></path>
<path fill="#009dbb" style="fill: var(--color2, #009dbb)" d="M12.51 28.387c0.198 0.054 0.346 0.17 0.445 0.348 0.097 0.178 0.119 0.369 0.063 0.572-0.055 0.202-0.169 0.355-0.343 0.46s-0.361 0.13-0.56 0.076c-0.199-0.054-0.348-0.17-0.445-0.348-0.099-0.178-0.121-0.369-0.066-0.571 0.055-0.204 0.17-0.357 0.346-0.462 0.174-0.104 0.361-0.13 0.56-0.076zM12.778 28.83c-0.064-0.13-0.171-0.216-0.319-0.256s-0.283-0.020-0.404 0.060c-0.122 0.082-0.203 0.198-0.244 0.349-0.042 0.154-0.030 0.295 0.034 0.424 0.063 0.13 0.169 0.215 0.319 0.256 0.148 0.040 0.283 0.020 0.404-0.060 0.12-0.079 0.2-0.195 0.242-0.349 0.041-0.151 0.030-0.292-0.032-0.423z"></path>
<path fill="#009dbb" style="fill: var(--color2, #009dbb)" d="M10.685 27.76l-0.094 1.536-0.209-0.096 0.095-1.254-0.889 0.89-0.198-0.091 1.103-1.073 0.192 0.088z"></path>
<path fill="#009dbb" style="fill: var(--color2, #009dbb)" d="M9.415 27.106l-0.775 1.208-0.761-0.488 0.099-0.154 0.587 0.377 0.225-0.351-0.442-0.284 0.1-0.156 0.442 0.284 0.251-0.391-0.63-0.404 0.1-0.156 0.804 0.516z"></path>
<path fill="#009dbb" style="fill: var(--color2, #009dbb)" d="M8.040 26.162l-0.919 1.103-0.352-0.293c-0.13-0.108-0.2-0.221-0.21-0.337-0.011-0.115 0.021-0.217 0.096-0.307 0.128-0.153 0.281-0.199 0.46-0.138l0.135-0.686 0.179 0.149-0.14 0.648 0.222 0.185 0.376-0.451 0.154 0.128zM7.398 26.619l-0.212-0.176c-0.068-0.057-0.134-0.084-0.197-0.080s-0.12 0.036-0.169 0.095c-0.051 0.061-0.071 0.123-0.061 0.187 0.009 0.065 0.047 0.126 0.113 0.181l0.208 0.174 0.317-0.38z"></path>
<path fill="#009dbb" style="fill: var(--color2, #009dbb)" d="M5.5 23.526l-1.203 0.784-0.262-0.402c-0.13-0.199-0.183-0.391-0.159-0.575 0.023-0.183 0.135-0.34 0.337-0.472 0.196-0.128 0.384-0.165 0.564-0.113 0.179 0.053 0.332 0.179 0.462 0.377l0.261 0.4zM5.232 23.454l-0.146-0.224c-0.099-0.153-0.213-0.245-0.341-0.279-0.129-0.034-0.265-0.005-0.409 0.090-0.148 0.096-0.234 0.21-0.257 0.342-0.024 0.131 0.015 0.275 0.118 0.434l0.142 0.218 0.893-0.582z"></path>
<path fill="#009dbb" style="fill: var(--color2, #009dbb)" d="M4.515 21.89l-1.277 0.656-0.094-0.184 1.277-0.656 0.094 0.184z"></path>
<path fill="#009dbb" style="fill: var(--color2, #009dbb)" d="M3.951 21.233l-0.177-0.088c0.080-0.154 0.095-0.298 0.043-0.43-0.034-0.088-0.081-0.149-0.14-0.183s-0.123-0.038-0.191-0.011c-0.070 0.027-0.113 0.075-0.129 0.143-0.019 0.067-0.018 0.162 0.001 0.283 0.021 0.129 0.013 0.241-0.025 0.335-0.038 0.093-0.108 0.16-0.211 0.2-0.104 0.041-0.206 0.035-0.306-0.015-0.102-0.052-0.18-0.148-0.235-0.29-0.069-0.177-0.060-0.34 0.025-0.49l0.168 0.082c-0.058 0.115-0.065 0.231-0.019 0.349 0.031 0.079 0.074 0.132 0.129 0.16 0.054 0.027 0.106 0.031 0.157 0.011 0.062-0.024 0.099-0.067 0.114-0.13 0.012-0.063 0.010-0.156-0.006-0.277-0.008-0.060-0.011-0.115-0.009-0.165s0.011-0.101 0.028-0.154 0.045-0.099 0.087-0.14c0.041-0.041 0.095-0.074 0.16-0.099 0.115-0.045 0.228-0.036 0.338 0.026 0.108 0.061 0.188 0.158 0.24 0.292 0.044 0.112 0.059 0.222 0.047 0.328-0.013 0.105-0.042 0.193-0.087 0.262z"></path>
<path fill="#009dbb" style="fill: var(--color2, #009dbb)" d="M2.913 18.353l0.086-0.167c0.075 0.024 0.153 0.079 0.236 0.165 0.082 0.084 0.138 0.191 0.167 0.32 0.046 0.204 0.016 0.388-0.092 0.55-0.108 0.161-0.267 0.266-0.478 0.314-0.209 0.047-0.398 0.021-0.569-0.078-0.173-0.099-0.282-0.252-0.329-0.457-0.030-0.133-0.027-0.25 0.008-0.353 0.034-0.102 0.083-0.186 0.146-0.254l0.154 0.115c-0.122 0.137-0.165 0.286-0.128 0.448 0.034 0.15 0.114 0.257 0.241 0.323s0.268 0.080 0.425 0.045c0.155-0.035 0.275-0.109 0.358-0.222s0.108-0.242 0.075-0.388c-0.008-0.035-0.017-0.067-0.029-0.097-0.013-0.030-0.027-0.056-0.044-0.078s-0.032-0.042-0.046-0.058c-0.014-0.016-0.031-0.031-0.052-0.046-0.021-0.016-0.037-0.027-0.047-0.033-0.011-0.008-0.026-0.017-0.046-0.027-0.020-0.012-0.032-0.018-0.036-0.021z"></path>
<path fill="#009dbb" style="fill: var(--color2, #009dbb)" d="M3.142 16.666c0.012 0.205-0.051 0.382-0.189 0.533-0.138 0.149-0.312 0.229-0.523 0.242-0.209 0.012-0.391-0.048-0.545-0.18s-0.237-0.301-0.249-0.507c-0.012-0.206 0.051-0.384 0.189-0.533 0.138-0.15 0.311-0.231 0.521-0.243 0.211-0.012 0.393 0.048 0.547 0.182 0.154 0.132 0.237 0.301 0.249 0.507zM2.807 17.061c0.103-0.102 0.151-0.23 0.142-0.383s-0.071-0.275-0.185-0.364c-0.116-0.090-0.252-0.13-0.408-0.121-0.159 0.009-0.289 0.065-0.391 0.167-0.103 0.101-0.151 0.229-0.142 0.383 0.009 0.153 0.071 0.275 0.185 0.364 0.113 0.088 0.249 0.128 0.408 0.119 0.156-0.009 0.287-0.064 0.391-0.165z"></path>
<path fill="#009dbb" style="fill: var(--color2, #009dbb)" d="M3.152 14.683l-1.487 0.397 0.025-0.229 1.22-0.307-1.126-0.561 0.023-0.216 1.367 0.707-0.023 0.21z"></path>
<path fill="#009dbb" style="fill: var(--color2, #009dbb)" d="M3.366 13.268l-1.393-0.349 0.22-0.877 0.177 0.044-0.17 0.676 0.405 0.102 0.128-0.509 0.18 0.045-0.128 0.509 0.451 0.113 0.182-0.726 0.18 0.045-0.232 0.927z"></path>
<path fill="#009dbb" style="fill: var(--color2, #009dbb)" d="M3.831 11.637l-1.336-0.524 0.167-0.427c0.062-0.158 0.146-0.259 0.254-0.305 0.106-0.046 0.213-0.048 0.321-0.006 0.186 0.073 0.278 0.204 0.276 0.393l0.694-0.088-0.085 0.216-0.659 0.072-0.105 0.268 0.547 0.215-0.073 0.186zM3.195 11.172l0.101-0.256c0.033-0.083 0.037-0.153 0.014-0.212-0.025-0.059-0.072-0.102-0.143-0.13-0.073-0.029-0.139-0.028-0.197 0.001-0.059 0.029-0.105 0.084-0.136 0.164l-0.099 0.252 0.461 0.181z"></path>
<path fill="#009dbb" style="fill: var(--color2, #009dbb)" d="M5.506 8.431l-1.123-0.894 0.299-0.375c0.148-0.186 0.314-0.297 0.495-0.332 0.181-0.036 0.365 0.021 0.554 0.172 0.183 0.146 0.278 0.312 0.285 0.499 0.006 0.186-0.065 0.372-0.213 0.557l-0.298 0.374zM5.49 8.154l0.166-0.209c0.114-0.143 0.166-0.28 0.157-0.411-0.008-0.133-0.079-0.253-0.214-0.36-0.138-0.11-0.273-0.155-0.406-0.136-0.132 0.018-0.257 0.101-0.375 0.249l-0.162 0.204 0.833 0.664z"></path>
<path fill="#009dbb" style="fill: var(--color2, #009dbb)" d="M6.784 6.937l-1.022-1.008 0.145-0.147 1.022 1.008-0.145 0.147z"></path>
<path fill="#009dbb" style="fill: var(--color2, #009dbb)" d="M7.209 6.215l0.028-0.196c0.172 0.027 0.312-0.004 0.422-0.095 0.073-0.060 0.116-0.124 0.13-0.191s-0.003-0.129-0.050-0.185c-0.048-0.058-0.106-0.083-0.176-0.078-0.070 0.004-0.159 0.034-0.269 0.091-0.116 0.060-0.224 0.088-0.326 0.082-0.1-0.006-0.186-0.052-0.256-0.137-0.071-0.086-0.099-0.185-0.082-0.295 0.017-0.113 0.084-0.217 0.201-0.314 0.146-0.121 0.303-0.164 0.473-0.131l-0.025 0.186c-0.128-0.019-0.24 0.011-0.337 0.092-0.065 0.054-0.102 0.112-0.111 0.173-0.009 0.059 0.004 0.11 0.039 0.152 0.042 0.051 0.095 0.073 0.159 0.067 0.064-0.008 0.151-0.039 0.261-0.093 0.054-0.026 0.106-0.047 0.154-0.060s0.1-0.021 0.155-0.022c0.055-0.001 0.108 0.012 0.16 0.038s0.1 0.067 0.144 0.121c0.079 0.095 0.106 0.205 0.082 0.329-0.024 0.122-0.091 0.229-0.202 0.32-0.093 0.077-0.192 0.126-0.297 0.148-0.104 0.021-0.196 0.021-0.277-0z"></path>
<path fill="#009dbb" style="fill: var(--color2, #009dbb)" d="M9.606 4.319l0.186 0.028c0.001 0.079-0.027 0.17-0.082 0.276-0.054 0.105-0.137 0.191-0.25 0.26-0.179 0.109-0.363 0.138-0.551 0.087-0.187-0.051-0.337-0.169-0.449-0.355-0.111-0.183-0.146-0.371-0.106-0.565 0.040-0.195 0.149-0.347 0.33-0.457 0.117-0.071 0.229-0.105 0.337-0.104 0.108 0 0.203 0.020 0.287 0.058l-0.060 0.183c-0.168-0.073-0.323-0.066-0.466 0.020-0.131 0.080-0.208 0.19-0.23 0.331s0.009 0.28 0.092 0.417c0.082 0.136 0.191 0.226 0.324 0.269s0.264 0.026 0.392-0.051c0.031-0.019 0.058-0.038 0.083-0.058 0.024-0.021 0.044-0.043 0.060-0.067s0.030-0.044 0.040-0.062c0.011-0.018 0.020-0.040 0.027-0.064 0.008-0.025 0.014-0.044 0.017-0.055 0.004-0.013 0.008-0.030 0.011-0.052 0.005-0.023 0.007-0.036 0.008-0.040z"></path>
<path fill="#009dbb" style="fill: var(--color2, #009dbb)" d="M11.326 3.978c-0.191 0.076-0.379 0.072-0.565-0.012-0.185-0.084-0.316-0.224-0.394-0.42-0.077-0.195-0.078-0.386-0.001-0.574s0.211-0.32 0.403-0.396c0.192-0.076 0.38-0.072 0.565 0.012 0.186 0.084 0.318 0.223 0.395 0.418 0.078 0.196 0.078 0.388-0 0.577-0.077 0.188-0.211 0.32-0.403 0.396zM10.846 3.784c0.13 0.066 0.266 0.071 0.408 0.014s0.239-0.153 0.288-0.29c0.049-0.138 0.044-0.28-0.014-0.425-0.059-0.148-0.153-0.254-0.282-0.319-0.128-0.066-0.264-0.071-0.408-0.014-0.143 0.057-0.239 0.153-0.288 0.29-0.048 0.135-0.043 0.276 0.016 0.425 0.058 0.145 0.151 0.252 0.28 0.32z"></path>
<path fill="#009dbb" style="fill: var(--color2, #009dbb)" d="M13.095 3.393l-0.849-1.284 0.225-0.049 0.679 1.059 0.175-1.246 0.212-0.046-0.236 1.521-0.206 0.045z"></path>
<path fill="#009dbb" style="fill: var(--color2, #009dbb)" d="M14.534 3.139l-0.111-1.431 0.901-0.070 0.014 0.182-0.695 0.054 0.032 0.416 0.524-0.041 0.014 0.185-0.524 0.040 0.036 0.464 0.747-0.058 0.014 0.185-0.953 0.074z"></path>
<path fill="#009dbb" style="fill: var(--color2, #009dbb)" d="M16.245 3.060l0.072-1.434 0.458 0.023c0.169 0.008 0.292 0.056 0.37 0.144 0.078 0.086 0.114 0.187 0.108 0.303-0.010 0.199-0.105 0.328-0.284 0.387l0.304 0.629-0.232-0.012-0.278-0.602-0.288-0.014-0.030 0.587-0.2-0.010zM16.483 2.309l0.275 0.014c0.089 0.004 0.157-0.014 0.205-0.054 0.048-0.042 0.074-0.101 0.078-0.177 0.004-0.079-0.017-0.141-0.064-0.186-0.046-0.047-0.113-0.072-0.199-0.077l-0.271-0.014-0.025 0.494z"></path>
<path fill="#009dbb" style="fill: var(--color2, #009dbb)" d="M19.146 3.431l0.417-1.374 0.459 0.139c0.228 0.069 0.392 0.182 0.491 0.338 0.1 0.155 0.115 0.348 0.045 0.578-0.068 0.224-0.188 0.373-0.359 0.449-0.171 0.074-0.37 0.077-0.596 0.008l-0.457-0.139zM19.398 3.314l0.255 0.078c0.174 0.053 0.321 0.051 0.44-0.006 0.121-0.056 0.206-0.167 0.256-0.332 0.051-0.169 0.044-0.311-0.023-0.428-0.065-0.116-0.189-0.201-0.37-0.256l-0.249-0.076-0.31 1.019z"></path>
<path fill="#009dbb" style="fill: var(--color2, #009dbb)" d="M20.977 4.054l0.559-1.322 0.19 0.080-0.559 1.322-0.19-0.080z"></path>
<path fill="#009dbb" style="fill: var(--color2, #009dbb)" d="M21.83 4.192l0.193-0.046c0.038 0.17 0.118 0.289 0.243 0.358 0.083 0.046 0.158 0.063 0.225 0.051s0.119-0.050 0.154-0.114c0.036-0.065 0.039-0.129 0.008-0.192-0.029-0.063-0.090-0.136-0.183-0.216-0.099-0.086-0.164-0.176-0.196-0.273-0.031-0.096-0.020-0.192 0.034-0.289 0.054-0.098 0.135-0.16 0.244-0.185 0.111-0.026 0.233-0.002 0.366 0.072 0.166 0.091 0.264 0.222 0.295 0.392l-0.182 0.045c-0.029-0.126-0.099-0.219-0.209-0.28-0.074-0.041-0.141-0.054-0.202-0.040-0.058 0.014-0.101 0.044-0.127 0.092-0.032 0.058-0.033 0.115-0.004 0.172 0.031 0.057 0.092 0.126 0.182 0.209 0.045 0.041 0.082 0.081 0.113 0.121s0.056 0.085 0.077 0.136c0.021 0.051 0.029 0.105 0.023 0.163s-0.025 0.117-0.059 0.179c-0.060 0.108-0.152 0.174-0.276 0.197-0.122 0.023-0.246-0.001-0.372-0.070-0.105-0.058-0.188-0.132-0.246-0.222-0.057-0.089-0.091-0.175-0.101-0.257z"></path>
<path fill="#009dbb" style="fill: var(--color2, #009dbb)" d="M24.553 5.787l0.041 0.183c-0.073 0.029-0.169 0.037-0.287 0.024-0.117-0.012-0.228-0.058-0.333-0.139-0.166-0.128-0.26-0.288-0.281-0.482-0.020-0.193 0.035-0.375 0.167-0.547 0.13-0.17 0.293-0.271 0.488-0.304 0.196-0.034 0.378 0.013 0.545 0.142 0.108 0.083 0.181 0.175 0.219 0.277 0.039 0.1 0.056 0.196 0.050 0.288l-0.192 0.010c0.007-0.183-0.056-0.325-0.188-0.426-0.122-0.093-0.252-0.125-0.391-0.094s-0.258 0.11-0.356 0.237c-0.097 0.126-0.141 0.26-0.133 0.4s0.071 0.256 0.19 0.346c0.029 0.022 0.057 0.041 0.084 0.056 0.029 0.015 0.057 0.025 0.084 0.032s0.052 0.012 0.073 0.015c0.021 0.003 0.044 0.004 0.069 0.002 0.026-0.001 0.046-0.003 0.058-0.005 0.013-0.001 0.031-0.004 0.053-0.008 0.023-0.004 0.037-0.006 0.041-0.007z"></path>
<path fill="#009dbb" style="fill: var(--color2, #009dbb)" d="M25.41 7.176c-0.141-0.149-0.207-0.326-0.198-0.529 0.010-0.203 0.092-0.376 0.245-0.521 0.152-0.144 0.33-0.215 0.533-0.213s0.375 0.078 0.517 0.228c0.142 0.15 0.208 0.327 0.198 0.529-0.009 0.204-0.090 0.378-0.242 0.521s-0.332 0.216-0.536 0.213c-0.203-0.002-0.375-0.078-0.517-0.228zM25.413 6.659c-0.013 0.145 0.033 0.273 0.138 0.385s0.231 0.165 0.376 0.16c0.146-0.006 0.276-0.063 0.39-0.17 0.116-0.109 0.18-0.236 0.192-0.38 0.014-0.144-0.032-0.272-0.138-0.385-0.105-0.112-0.231-0.165-0.376-0.16-0.143 0.005-0.273 0.062-0.389 0.171-0.114 0.107-0.178 0.233-0.194 0.378z"></path>
<path fill="#009dbb" style="fill: var(--color2, #009dbb)" d="M26.666 8.679l0.881-1.262 0.129 0.191-0.735 1.021 1.222-0.296 0.121 0.18-1.501 0.341-0.118-0.175z"></path>
<path fill="#009dbb" style="fill: var(--color2, #009dbb)" d="M27.412 9.889l1.289-0.632 0.398 0.812-0.164 0.081-0.307-0.626-0.375 0.184 0.231 0.472-0.166 0.082-0.231-0.472-0.417 0.205 0.33 0.672-0.166 0.082-0.421-0.858z"></path>
<path fill="#009dbb" style="fill: var(--color2, #009dbb)" d="M28.107 11.425l1.359-0.464 0.148 0.434c0.055 0.16 0.056 0.293 0.003 0.397-0.051 0.104-0.131 0.175-0.242 0.212-0.189 0.064-0.343 0.024-0.464-0.121l-0.472 0.516-0.075-0.22 0.457-0.481-0.093-0.273-0.556 0.19-0.065-0.189zM28.893 11.369l0.089 0.261c0.029 0.084 0.071 0.141 0.126 0.171 0.057 0.029 0.121 0.031 0.193 0.007 0.075-0.025 0.125-0.068 0.149-0.128 0.026-0.061 0.026-0.132-0.002-0.213l-0.088-0.257-0.469 0.16z"></path>
<path fill="#009dbb" style="fill: var(--color2, #009dbb)" d="M26.851 16.035c0 5.969-4.839 10.809-10.809 10.809s-10.808-4.839-10.808-10.809c0-5.969 4.839-10.808 10.808-10.808s10.809 4.839 10.809 10.808zM10.321 17.064c-0.19-0.206-0.513-0.218-0.72-0.030-0.104 0.095-0.159 0.222-0.164 0.352-0.005 0.129 0.039 0.261 0.134 0.364 0.191 0.208 0.513 0.22 0.72 0.030 0.104-0.095 0.159-0.222 0.164-0.352 0.005-0.128-0.039-0.261-0.134-0.364zM17.457 13.892c0-0.012 0.002-0.026 0.003-0.039l-4.797-2.094c-0.044 0.069-0.097 0.132-0.159 0.188s-0.129 0.102-0.201 0.141l1.698 4.945c0.129-0.002 0.256 0.030 0.37 0.093l3.15-2.899c-0.048-0.107-0.071-0.222-0.065-0.336zM10.868 17.714c-0.046 0.139-0.123 0.266-0.228 0.372l3.032 3.284c0.062-0.051 0.129-0.090 0.199-0.118l-0.021-0.84-0.051-1.936c-0.123-0.037-0.238-0.106-0.332-0.206-0.088-0.095-0.148-0.211-0.176-0.335l-2.423-0.222zM11.855 12.204h-0.048c-0.069-0.004-0.134-0.014-0.201-0.028l-1.404 4.302c0.175 0.048 0.332 0.141 0.457 0.277 0.132 0.141 0.215 0.315 0.245 0.502l2.429 0.224c0.041-0.093 0.101-0.18 0.178-0.25 0.018-0.016 0.035-0.032 0.055-0.046l-1.711-4.98zM14.746 17.851l4.949 2.231c0.044-0.063 0.093-0.123 0.152-0.178 0.058-0.053 0.123-0.099 0.19-0.136l-1.824-5.105c-0.13 0.002-0.263-0.028-0.379-0.093l-3.15 2.897c0.055 0.121 0.076 0.254 0.062 0.384zM17.895 10.89c-0.206-0.039-0.393-0.139-0.538-0.296-0.132-0.143-0.217-0.319-0.245-0.509l-4.305 0.993c0.011 0.065 0.016 0.13 0.012 0.196 0 0.016-0.002 0.032-0.004 0.048l4.831 2.11c0.016-0.018 0.032-0.035 0.049-0.051 0.076-0.070 0.162-0.122 0.254-0.153l-0.053-2.254-0.002-0.083zM21.632 13.799l-2.903-3.152-0.002 0.002c-0.108 0.1-0.235 0.171-0.372 0.213v0.032l0.055 2.323c0.122 0.037 0.236 0.106 0.33 0.206 0.095 0.104 0.155 0.229 0.18 0.357l2.499 0.306c0.051-0.107 0.123-0.204 0.213-0.287zM20.484 19.649h0.060c0.062 0.003 0.122 0.012 0.182 0.025l1.287-4.235c-0.167-0.048-0.319-0.141-0.439-0.271-0.16-0.174-0.25-0.396-0.256-0.63l-2.455-0.299c-0.039 0.085-0.095 0.162-0.168 0.229-0.016 0.014-0.032 0.028-0.048 0.040l1.836 5.142zM14.743 21.451c0.092 0.099 0.153 0.215 0.185 0.342l4.616-1.023c-0.009-0.062-0.012-0.125-0.011-0.188 0-0.014 0.002-0.028 0.003-0.041 0.001-0.006 0.002-0.012 0.002-0.019l-4.983-2.249c-0.005 0.005-0.009 0.009-0.014 0.014v0c-0.010 0.010-0.019 0.020-0.030 0.030-0.076 0.069-0.161 0.12-0.252 0.151l0.072 2.749c0.152 0.033 0.296 0.111 0.411 0.234zM12.192 11.608c0.104-0.095 0.159-0.222 0.164-0.352s-0.039-0.262-0.134-0.365c-0.19-0.208-0.513-0.22-0.72-0.030-0.104 0.095-0.159 0.222-0.164 0.352-0.005 0.129 0.039 0.261 0.134 0.365 0.191 0.208 0.513 0.22 0.72 0.030zM18.415 10.312c0.104-0.095 0.159-0.224 0.164-0.352s-0.039-0.261-0.134-0.365c-0.19-0.208-0.513-0.22-0.72-0.030-0.104 0.095-0.159 0.222-0.164 0.352-0.005 0.129 0.039 0.261 0.134 0.365 0.19 0.208 0.513 0.22 0.72 0.030zM21.78 14.491c-0.005 0.129 0.039 0.261 0.134 0.365 0.19 0.206 0.513 0.22 0.72 0.030 0.104-0.095 0.159-0.222 0.164-0.352 0.005-0.129-0.039-0.261-0.134-0.365-0.19-0.208-0.513-0.22-0.72-0.030-0.104 0.095-0.159 0.222-0.164 0.352zM19.995 20.597c-0.005 0.13 0.039 0.262 0.134 0.364 0.19 0.208 0.513 0.22 0.72 0.030 0.104-0.095 0.159-0.222 0.164-0.352 0.005-0.128-0.039-0.261-0.134-0.364-0.19-0.208-0.513-0.22-0.72-0.030-0.104 0.095-0.159 0.222-0.164 0.352zM14.541 21.637c-0.19-0.208-0.513-0.22-0.72-0.030-0.104 0.095-0.159 0.224-0.164 0.352s0.039 0.261 0.134 0.365c0.191 0.208 0.513 0.22 0.72 0.030 0.104-0.095 0.159-0.222 0.164-0.352 0.005-0.129-0.039-0.261-0.134-0.364z"></path>
</symbol>


<symbol id="icon-footer-telegram" viewBox="0 0 39 32">
<path fill="#979797" style="fill: var(--color1, #979797)" d="M34.945 0.815l-32.712 12.68c-1.316 0.59-1.762 1.773-0.318 2.415l8.392 2.681 20.291-12.605c1.108-0.791 2.242-0.58 1.266 0.29l-17.427 15.861-0.547 6.712c0.507 1.037 1.435 1.041 2.028 0.526l4.822-4.586 8.258 6.215c1.918 1.141 2.961 0.405 3.374-1.687l5.416-25.779c0.562-2.575-0.397-3.709-2.841-2.723z"></path>
</symbol>

</defs>
</svg>
